<?xml version="1.0" standalone="no"?>
<!DOCTYPE svg PUBLIC "-//W3C//DTD SVG 1.1//EN" "http://www.w3.org/Graphics/SVG/1.1/DTD/svg11.dtd" >
<svg xmlns="http://www.w3.org/2000/svg" xmlns:xlink="http://www.w3.org/1999/xlink" version="1.1">
<metadata>
Created by FontForge 20170910 at Wed Jun 13 19:03:59 2007
 By Jimmy Wärting
Copyright 1990, 2002, 2005 Adobe Systems Incorporated. All rights reserved. Rotis is a trademark of Monotype Imaging Inc. registered in the U.S. Patent and Trademark Office and may be registered in certain other jurisdictions.
</metadata>
<defs>
<font id="RotisSemiSerifStd" horiz-adv-x="519" >
  <font-face 
    font-family="Rotis Semi Serif Std"
    font-weight="400"
    font-stretch="normal"
    units-per-em="1000"
    panose-1="2 2 6 3 6 5 5 2 2 4"
    ascent="700"
    descent="-300"
    x-height="465"
    cap-height="673"
    bbox="-150 -243 1146 920"
    underline-thickness="50"
    underline-position="-100"
    stemh="39"
    stemv="77"
    unicode-range="U+0020-FB02"
  />
<missing-glyph horiz-adv-x="500" 
d="M0 0v700h500v-700h-500zM250 395l170 255h-340zM280 350l170 -255v510zM80 50h340l-170 255zM50 605v-510l170 255z" />
    <glyph glyph-name="f_i" unicode="fi" horiz-adv-x="556" 
d="M110 0v431h-80v34h80v57c0 80 15 178 142 178c104 0 137 -60 140 -107h-85c0 34 -15 68 -62 68c-58 0 -58 -69 -58 -139v-57h134v-34h-134v-431h-77zM402 0v369c0 61 -47 64 -75 67v16l152 24v-476h-77z" />
    <glyph glyph-name="f_l" unicode="fl" horiz-adv-x="556" 
d="M110 0v431h-80v34h80v57c0 80 15 178 142 178c36 0 63 -7 84 -18l127 19v-701h-77v593h-80c0 34 -15 68 -61 68c-58 0 -58 -69 -58 -139v-57h134v-34h-134v-431h-77z" />
    <glyph glyph-name=".notdef" horiz-adv-x="500" 
d="M0 0v700h500v-700h-500zM250 395l170 255h-340zM280 350l170 -255v510zM80 50h340l-170 255zM50 605v-510l170 255z" />
    <glyph glyph-name="space" unicode=" " horiz-adv-x="297" 
 />
    <glyph glyph-name="exclam" unicode="!" horiz-adv-x="315" 
d="M172 180l-29 493h103l-30 -493h-44zM195 -11c-35 0 -63 27 -63 61s28 60 63 60c34 0 62 -26 62 -60s-28 -61 -62 -61z" />
    <glyph glyph-name="quotedbl" unicode="&#x22;" horiz-adv-x="408" 
d="M121 469h-33c15 19 47 55 47 92c0 23 -19 12 -40 23c-14 8 -25 19 -25 46c0 32 25 54 60 54c32 0 62 -21 62 -68c0 -71 -54 -128 -71 -147zM288 469h-33c16 19 47 55 47 92c0 23 -18 12 -39 23c-14 8 -25 19 -25 46c0 32 24 54 59 54c32 0 62 -20 62 -67
c0 -71 -53 -129 -71 -148z" />
    <glyph glyph-name="numbersign" unicode="#" horiz-adv-x="575" 
d="M97 0l59 218h-97l11 42h97l28 102h-97l11 42h97l58 214h62l-57 -214h83l57 214h63l-58 -214h102l-11 -42h-102l-27 -102h102l-11 -42h-102l-58 -218h-63l58 218h-84l-58 -218h-63zM257 362l-27 -102h83l28 102h-84z" />
    <glyph glyph-name="dollar" unicode="$" horiz-adv-x="538" 
d="M242 -106v80c-108 2 -179 44 -188 120h87c12 -41 32 -73 101 -83v295c-73 22 -178 49 -178 182c0 117 117 152 178 157v71h39v-71c113 -4 168 -50 178 -120h-87c0 64 -44 78 -91 83v-270c70 -22 200 -56 200 -188c0 -133 -113 -172 -200 -176v-80h-39zM242 350v258
c-59 -7 -96 -48 -96 -128c0 -91 52 -114 96 -130zM281 294v-283c56 8 115 48 115 138c0 97 -67 127 -115 145z" />
    <glyph glyph-name="percent" unicode="%" horiz-adv-x="816" 
d="M176 194c-109 0 -154 94 -154 217c0 117 34 218 154 218c122 0 154 -108 154 -218c0 -120 -35 -217 -154 -217zM88 411c0 -69 8 -183 90 -183c75 0 86 115 86 183c0 76 -11 184 -87 184c-80 0 -89 -106 -89 -184zM640 -11c-110 0 -155 93 -155 217c0 116 34 218 154 218
c122 0 155 -108 155 -218c0 -120 -36 -217 -154 -217zM551 206c0 -69 8 -183 90 -183c75 0 87 114 87 183c0 75 -12 184 -87 184c-81 0 -90 -106 -90 -184zM280 0l208 618h47l-207 -618h-48z" />
    <glyph glyph-name="ampersand" unicode="&#x26;" horiz-adv-x="686" 
d="M387 43v-36c-21 -7 -56 -18 -112 -18c-138 0 -207 70 -207 186c0 107 44 154 120 174v2c-47 14 -113 44 -113 142c0 107 77 156 174 156c101 0 142 -51 147 -108h-87c-3 23 -15 74 -71 74c-69 0 -78 -70 -78 -116c0 -86 27 -132 135 -132h167v170l77 47v-217h113v-39
h-113v-221c0 -45 12 -84 72 -84c14 0 26 2 41 8v-34c-18 -6 -36 -8 -65 -8c-104 0 -125 54 -125 128v211h-167c-59 0 -142 -9 -142 -147c0 -101 51 -158 143 -158c36 0 70 12 91 20z" />
    <glyph glyph-name="quotesingle" unicode="'" horiz-adv-x="241" 
d="M121 469h-33c15 19 47 55 47 92c0 23 -19 12 -40 23c-14 8 -25 19 -25 46c0 32 25 54 60 54c32 0 62 -21 62 -68c0 -71 -54 -128 -71 -147z" />
    <glyph glyph-name="parenleft" unicode="(" horiz-adv-x="278" 
d="M250 -112v-31c-158 25 -183 194 -183 446c0 255 20 415 183 444v-32c-97 -58 -98 -205 -98 -412c0 -192 6 -384 98 -415z" />
    <glyph glyph-name="parenright" unicode=")" horiz-adv-x="278" 
d="M29 -143v31c92 31 98 223 98 415c0 207 -1 354 -98 412v32c163 -29 183 -189 183 -444c0 -252 -25 -421 -183 -446z" />
    <glyph glyph-name="asterisk" unicode="*" horiz-adv-x="352" 
d="M133 397l-62 36l91 100l-2 2l-135 -25v66l135 -27l2 2l-91 102l60 31l44 -127h2l45 127l60 -32l-91 -101l2 -2l134 27v-67l-135 24l-2 -2l90 -99l-60 -35l-44 131h-2z" />
    <glyph glyph-name="plus" unicode="+" horiz-adv-x="575" 
d="M253 0v211h-196v52h196v195h64v-195h201v-52h-201v-211h-64z" />
    <glyph glyph-name="comma" unicode="," horiz-adv-x="241" 
d="M87 -143h-35c23 21 65 81 65 126c0 14 -4 19 -21 21c-21 2 -49 16 -49 52c0 41 33 60 66 60c52 0 71 -45 71 -81c0 -78 -85 -167 -97 -178z" />
    <glyph glyph-name="hyphen" unicode="-" horiz-adv-x="408" 
d="M54 214v63h300v-63h-300z" />
    <glyph glyph-name="period" unicode="." horiz-adv-x="241" 
d="M120 -11c-36 0 -65 29 -65 63c0 36 30 64 65 64s66 -27 66 -64c0 -35 -29 -63 -66 -63z" />
    <glyph glyph-name="slash" unicode="/" horiz-adv-x="334" 
d="M35 -138l193 880h60l-193 -880h-60z" />
    <glyph glyph-name="zero" unicode="0" 
d="M258 -11c-160 0 -224 140 -224 320c0 173 49 320 224 320c178 0 227 -156 227 -320c0 -177 -53 -320 -227 -320zM123 309c0 -104 12 -281 135 -281c120 0 138 177 138 281c0 113 -19 281 -138 281c-121 0 -135 -165 -135 -281z" />
    <glyph glyph-name="one" unicode="1" 
d="M248 0v465c0 35 -4 76 -38 76c-30 0 -51 -5 -69 -13v17l152 84h32v-629h-77z" />
    <glyph glyph-name="two" unicode="2" 
d="M64 0v40c60 54 282 261 282 427c0 70 -39 123 -108 123c-88 0 -120 -68 -129 -107h-38c10 58 49 146 178 146c126 0 186 -63 186 -190c0 -151 -255 -347 -303 -390h182c88 0 109 38 114 95h25l-10 -144h-379z" />
    <glyph glyph-name="three" unicode="3" 
d="M102 494h-35c10 55 47 135 176 135c108 0 186 -57 186 -159c0 -83 -48 -125 -112 -142v-2c66 -15 120 -55 120 -156c0 -132 -125 -181 -249 -181c-62 0 -121 12 -138 16v39c35 -8 71 -16 107 -16c98 0 191 51 191 155s-64 122 -134 124v39c44 0 126 9 126 123
c0 78 -49 121 -113 121c-81 0 -112 -56 -125 -96z" />
    <glyph glyph-name="four" unicode="4" 
d="M310 0v178h-268v47l268 393h77v-391h112v-49h-112v-178h-77zM308 529l-203 -302h205v302h-2z" />
    <glyph glyph-name="five" unicode="5" 
d="M188 569l-12 -225c14 8 57 33 120 33c103 0 179 -71 179 -176c0 -144 -122 -212 -253 -212c-70 0 -128 15 -145 19v37c33 -10 59 -17 108 -17c108 0 201 59 201 178c0 54 -43 122 -124 122c-58 -2 -89 -32 -107 -53h-56l18 343h312v-49h-241z" />
    <glyph glyph-name="six" unicode="6" 
d="M446 618v-38c-28 4 -55 10 -83 10c-186 0 -209 -170 -209 -284c24 23 63 67 149 67c111 0 175 -71 175 -191c0 -126 -76 -193 -206 -193c-173 0 -207 159 -207 303c0 190 58 337 262 337c52 0 101 -8 119 -11zM154 251c3 -36 5 -223 123 -223c81 0 112 74 112 150
c0 87 -38 156 -108 156c-73 0 -111 -61 -127 -83z" />
    <glyph glyph-name="seven" unicode="7" 
d="M123 0l231 569h-148c-57 0 -103 0 -114 -94h-29l5 143h385v-38l-236 -580h-94z" />
    <glyph glyph-name="eight" unicode="8" 
d="M258 -11c-116 0 -198 62 -198 171c0 112 58 146 120 162v2c-59 16 -111 52 -111 148c0 95 79 157 187 157c114 0 191 -56 191 -162c0 -99 -64 -130 -111 -143v-2c54 -15 122 -50 122 -156c0 -128 -80 -177 -200 -177zM158 467c0 -65 27 -127 99 -127c76 0 101 57 101 128
c0 68 -31 122 -102 122c-67 0 -98 -59 -98 -123zM149 165c0 -74 37 -137 108 -137c81 0 112 58 112 137c0 80 -36 141 -112 141c-75 0 -108 -71 -108 -141z" />
    <glyph glyph-name="nine" unicode="9" 
d="M79 0v38c27 -4 54 -10 82 -10c186 0 209 169 209 284c-24 -24 -63 -67 -149 -67c-111 0 -174 71 -174 189c0 128 75 195 205 195c174 0 207 -160 207 -303c0 -190 -58 -337 -262 -337c-52 0 -100 8 -118 11zM136 438c0 -85 37 -154 107 -154c73 0 111 61 127 83
c-3 36 -5 223 -123 223c-81 0 -111 -74 -111 -152z" />
    <glyph glyph-name="colon" unicode=":" horiz-adv-x="297" 
d="M173 -11c-37 0 -66 29 -66 63c0 36 30 64 65 64s66 -27 66 -64c0 -35 -29 -63 -65 -63zM173 349c-37 0 -66 29 -66 63c0 37 30 64 65 64s66 -27 66 -64c0 -35 -29 -63 -65 -63z" />
    <glyph glyph-name="semicolon" unicode=";" horiz-adv-x="297" 
d="M153 -143h-35c23 21 65 81 65 126c0 14 -4 19 -21 21c-21 2 -49 16 -49 52c0 41 33 60 65 60c53 0 72 -45 72 -81c0 -78 -85 -167 -97 -178zM177 349c-36 0 -65 29 -65 63c0 37 30 64 65 64s66 -27 66 -64c0 -35 -30 -63 -66 -63z" />
    <glyph glyph-name="less" unicode="&#x3c;" horiz-adv-x="575" 
d="M530 -6l-486 216v54l486 215v-77l-387 -165l387 -166v-77z" />
    <glyph glyph-name="equal" unicode="=" horiz-adv-x="575" 
d="M57 134v52h461v-52h-461zM57 288v52h461v-52h-461z" />
    <glyph glyph-name="greater" unicode="&#x3e;" horiz-adv-x="575" 
d="M44 -6v77l387 166l-387 165v77l486 -215v-54z" />
    <glyph glyph-name="question" unicode="?" horiz-adv-x="463" 
d="M162 178v57c0 80 11 91 58 144l58 63c24 28 51 61 51 102c0 62 -46 101 -101 101c-73 0 -89 -53 -92 -82h-87c5 51 53 121 178 121c96 0 187 -50 187 -145c0 -73 -37 -110 -74 -146l-76 -76c-41 -41 -57 -57 -57 -112v-27h-45zM187 -11c-36 0 -63 27 -63 61s29 60 62 60
s63 -26 63 -60s-28 -61 -62 -61z" />
    <glyph glyph-name="at" unicode="@" horiz-adv-x="1000" 
d="M804 14l27 -23c-27 -30 -153 -124 -323 -124c-238 0 -413 136 -413 331c0 237 208 446 449 446c202 0 361 -133 361 -324c0 -180 -141 -320 -281 -320c-63 0 -72 46 -72 71c-14 -15 -54 -65 -130 -65c-73 0 -133 49 -133 143c0 145 129 327 259 327c81 0 106 -55 116 -74
l22 54h87l-84 -207c-22 -56 -61 -150 -61 -170c0 -16 7 -27 30 -27c74 0 201 98 201 268c0 172 -146 273 -312 273c-193 0 -383 -197 -383 -394c0 -164 134 -287 348 -287c181 0 278 91 292 102zM369 114c0 -48 29 -67 69 -67c63 0 94 59 110 85c56 92 84 213 84 241
c0 31 -22 64 -62 64c-97 0 -201 -228 -201 -323z" />
    <glyph glyph-name="A" unicode="A" horiz-adv-x="575" 
d="M0 0l207 555c7 18 15 38 15 54c0 26 -27 35 -77 47v17h172l258 -673h-97l-84 223h-252l-79 -223h-63zM270 567l-114 -305h227z" />
    <glyph glyph-name="B" unicode="B" horiz-adv-x="575" 
d="M96 0v559c0 77 -14 80 -99 97v17h280c72 0 225 -6 225 -161c0 -103 -73 -142 -119 -152v-2c70 -13 153 -53 153 -177c0 -181 -190 -181 -266 -181h-174zM183 559v-184h49c56 0 172 6 172 129c0 103 -68 130 -148 130c-69 0 -73 -8 -73 -75zM183 336v-215
c0 -76 0 -82 83 -82c87 0 172 29 172 142c0 153 -142 155 -206 155h-49z" />
    <glyph glyph-name="C" unicode="C" horiz-adv-x="556" 
d="M532 59v-42c-48 -16 -95 -28 -188 -28c-188 0 -290 167 -290 370c0 182 61 325 266 325c151 0 205 -79 212 -147h-98c-5 31 -22 102 -120 102c-106 0 -162 -101 -162 -254c0 -142 28 -351 247 -351c59 0 121 21 133 25z" />
    <glyph glyph-name="D" unicode="D" horiz-adv-x="630" 
d="M97 0v559c0 76 -13 80 -100 97v17h212c212 0 367 -41 367 -337s-162 -336 -371 -336h-108zM184 559v-446c0 -49 0 -74 53 -74c161 0 241 88 241 297c0 172 -47 298 -226 298c-60 0 -68 -10 -68 -75z" />
    <glyph glyph-name="E" unicode="E" horiz-adv-x="538" 
d="M98 0v568c0 57 -14 76 -101 88v17h472l5 -122h-31c-10 52 -9 83 -92 83h-105c-57 0 -61 -12 -61 -66v-197h127c83 0 90 36 98 83h23v-207h-23c-10 58 -13 85 -98 85h-127v-235c0 -58 9 -58 82 -58h108c68 0 73 21 87 97h31l-7 -136h-388z" />
    <glyph glyph-name="F" unicode="F" horiz-adv-x="501" 
d="M98 0v568c0 57 -14 76 -101 88v17h472l5 -122h-31c-10 52 -9 83 -92 83h-105c-57 0 -61 -12 -61 -66v-197h127c83 0 90 36 98 83h23v-207h-23c-10 58 -13 85 -98 85h-127v-332h-87z" />
    <glyph glyph-name="G" unicode="G" horiz-adv-x="630" 
d="M551 374v-356c-29 -7 -119 -29 -210 -29c-205 0 -297 138 -297 374c0 191 62 321 272 321c150 0 223 -67 229 -150h-98c-5 39 -28 105 -133 105c-156 0 -172 -159 -172 -268c0 -168 53 -337 245 -337c33 0 49 2 77 9v213c0 79 -14 87 -101 101v17h188z" />
    <glyph glyph-name="H" unicode="H" horiz-adv-x="649" 
d="M97 0v559c0 69 -32 66 -100 74v17l187 23v-305h293v305h87v-673h-87v329h-293v-329h-87z" />
    <glyph glyph-name="I" unicode="I" horiz-adv-x="278" 
d="M100 0v559c0 69 -31 66 -100 74v17l187 23v-673h-87z" />
    <glyph glyph-name="J" unicode="J" horiz-adv-x="426" 
d="M346 673v-502c0 -74 -26 -182 -191 -182c-103 0 -163 41 -167 120h94c2 -28 15 -81 82 -81c95 0 95 100 95 155v376c0 69 -31 66 -100 74v17z" />
    <glyph glyph-name="K" unicode="K" horiz-adv-x="575" 
d="M98 0v559c0 69 -31 66 -100 74v17l187 23v-301l274 301h66l-266 -292l304 -381h-105l-271 341h-2v-341h-87z" />
    <glyph glyph-name="L" unicode="L" horiz-adv-x="482" 
d="M97 0v559c0 69 -31 66 -100 74v17l187 23v-546c0 -82 0 -88 82 -88h89c75 0 78 42 86 109h31l-5 -148h-370z" />
    <glyph glyph-name="M" unicode="M" horiz-adv-x="816" 
d="M97 0v555c0 80 -12 83 -100 101v17h219l198 -575h2l198 575h121v-673h-87v620h-2l-209 -620h-78l-208 620h-2v-620h-52z" />
    <glyph glyph-name="N" unicode="N" horiz-adv-x="649" 
d="M95 0v555c0 80 -14 87 -100 101v17h200l314 -546h2v546h52v-673h-76l-338 587h-2v-587h-52z" />
    <glyph glyph-name="O" unicode="O" horiz-adv-x="630" 
d="M316 -11c-206 0 -262 148 -262 347c0 214 63 348 262 348c200 0 260 -149 260 -348c0 -212 -62 -347 -260 -347zM316 28c151 0 162 171 162 308c0 126 -7 309 -162 309c-153 0 -164 -171 -164 -309c0 -125 7 -308 164 -308z" />
    <glyph glyph-name="P" unicode="P" horiz-adv-x="538" 
d="M98 0v567c0 61 -14 76 -100 89v17h242c121 0 272 0 272 -175c0 -174 -160 -174 -282 -174h-45v-324h-87zM185 567v-204h43c93 0 186 6 186 135c0 99 -55 136 -144 136c-80 0 -85 -9 -85 -67z" />
    <glyph glyph-name="Q" unicode="Q" horiz-adv-x="630" 
d="M576 -75v-31c-29 -11 -59 -15 -90 -15c-140 0 -199 49 -231 110c-156 28 -201 167 -201 347c0 214 63 348 262 348c200 0 260 -149 260 -348c0 -193 -50 -323 -204 -347c20 -38 68 -74 152 -74c18 0 35 5 52 10zM152 336c0 -126 7 -308 164 -308c151 0 162 169 162 308
c0 126 -7 309 -162 309c-153 0 -164 -171 -164 -309z" />
    <glyph glyph-name="R" unicode="R" horiz-adv-x="556" 
d="M96 0v567c0 70 -16 72 -101 89v17h283c122 0 223 -29 223 -173c0 -114 -85 -151 -173 -163l202 -337h-98l-199 331h-50v-331h-87zM183 567v-197h27c71 0 193 0 193 140c0 95 -71 124 -149 124c-67 0 -71 -8 -71 -67z" />
    <glyph glyph-name="S" unicode="S" horiz-adv-x="482" 
d="M405 668v-70c-31 14 -95 41 -165 41c-72 0 -121 -39 -121 -100c0 -158 330 -138 330 -357c0 -138 -114 -193 -243 -193c-70 0 -143 16 -160 20v69c37 -18 106 -44 174 -44c88 0 140 42 140 127c0 169 -321 144 -321 354c0 109 85 169 218 169c65 0 119 -10 148 -16z" />
    <glyph glyph-name="T" unicode="T" horiz-adv-x="538" 
d="M225 0v634h-90c-84 0 -86 -36 -92 -97h-31l5 136h503l5 -136h-31c-6 61 -6 97 -92 97h-90v-634h-87z" />
    <glyph glyph-name="U" unicode="U" horiz-adv-x="630" 
d="M551 673v-424c0 -123 0 -260 -225 -260c-215 0 -231 117 -231 256v314c0 69 -32 66 -100 74v17l187 23v-428c0 -73 0 -217 145 -217c165 0 165 115 165 209v436h59z" />
    <glyph glyph-name="V" unicode="V" horiz-adv-x="575" 
d="M264 -11l-212 566c-29 79 -34 89 -109 101v17h165l201 -559l207 559h59l-253 -684h-58z" />
    <glyph glyph-name="W" unicode="W" horiz-adv-x="815" 
d="M167 -11l-115 568c-16 79 -25 83 -102 99v17h166l111 -548h2l157 548h84l159 -523h2l109 523h53l-143 -684h-56l-182 597h-2l-171 -597h-72z" />
    <glyph glyph-name="X" unicode="X" horiz-adv-x="538" 
d="M10 0l211 345l-125 210c-42 67 -39 89 -119 101v17h151l156 -260l161 260h63l-194 -314l212 -359h-101l-174 288l-176 -288h-65z" />
    <glyph glyph-name="Y" unicode="Y" 
d="M211 0v316l-142 239c-40 68 -52 96 -120 101v17h149l174 -293l181 293h66l-221 -357v-316h-87z" />
    <glyph glyph-name="Z" unicode="Z" horiz-adv-x="537" 
d="M38 0v44l359 590h-218c-85 0 -86 -38 -92 -98h-31l6 137h451v-43l-360 -591h251c85 0 86 43 93 111h31l-5 -150h-485z" />
    <glyph glyph-name="bracketleft" unicode="[" horiz-adv-x="297" 
d="M93 -138v880h190v-39h-45c-60 0 -68 0 -68 -84v-660c0 -58 23 -58 69 -58h44v-39h-190z" />
    <glyph glyph-name="backslash" unicode="\" horiz-adv-x="334" 
d="M240 -138l-193 880h60l193 -880h-60z" />
    <glyph glyph-name="bracketright" unicode="]" horiz-adv-x="297" 
d="M13 -138v39h44c47 0 69 0 69 58v660c0 84 -8 84 -67 84h-46v39h190v-880h-190z" />
    <glyph glyph-name="asciicircum" unicode="^" horiz-adv-x="371" 
d="M60 519l96 154h60l95 -154h-62l-63 102l-65 -102h-61z" />
    <glyph glyph-name="underscore" unicode="_" horiz-adv-x="500" 
d="M0 -125v50h500v-50h-500z" />
    <glyph glyph-name="grave" unicode="`" horiz-adv-x="300" 
d="M128 545l-58 83c-13 18 -20 29 -20 40c0 21 18 34 38 34c30 0 40 -11 49 -42l34 -115h-43z" />
    <glyph glyph-name="a" unicode="a" horiz-adv-x="463" 
d="M308 0v64c-23 -27 -64 -75 -142 -75c-72 0 -120 49 -120 118c0 143 197 147 262 149v39c0 70 0 142 -84 142c-76 0 -81 -62 -83 -88h-89c4 59 43 127 175 127c134 0 158 -71 158 -163v-313h-77zM308 166v59c-42 -1 -177 -7 -177 -105c0 -35 20 -82 76 -82
c68 0 101 78 101 128z" />
    <glyph glyph-name="b" unicode="b" 
d="M78 0v577c0 67 -19 83 -79 84v17l156 22v-303h2c16 32 55 79 131 79c131 0 182 -116 182 -245c0 -146 -60 -242 -193 -242c-66 0 -101 33 -122 53l-52 -42h-25zM155 281v-75c0 -68 2 -178 120 -178c99 0 110 133 110 203c0 79 -20 206 -117 206
c-78 0 -113 -105 -113 -156z" />
    <glyph glyph-name="c" unicode="c" horiz-adv-x="426" 
d="M396 34v-29c-21 -7 -58 -16 -107 -16c-175 0 -240 106 -240 258c0 126 53 229 197 229c107 0 170 -63 170 -127h-93c0 41 -18 88 -85 88c-63 0 -104 -56 -104 -156c0 -120 63 -253 207 -253c18 0 37 3 55 6z" />
    <glyph glyph-name="d" unicode="d" 
d="M363 0v66h-2c-17 -31 -55 -77 -126 -77c-121 0 -186 103 -186 243c0 130 56 244 181 244c73 0 115 -48 131 -79h2v180c0 65 -17 83 -76 84v17l153 22v-700h-77zM363 213v40c0 74 -24 184 -115 184c-93 0 -114 -124 -114 -205c0 -69 17 -204 110 -204
c92 0 119 108 119 185z" />
    <glyph glyph-name="e" unicode="e" horiz-adv-x="445" 
d="M399 40v-33c-12 -5 -62 -18 -124 -18c-147 0 -233 91 -233 258c0 144 55 229 201 229c94 0 168 -55 168 -174v-15h-292v-21c0 -97 70 -238 209 -238c24 0 49 6 71 12zM324 321v9c0 56 -34 107 -94 107c-91 0 -107 -82 -110 -116h204z" />
    <glyph glyph-name="f" unicode="f" horiz-adv-x="333" 
d="M118 0v431h-79v34h79v57c0 80 15 178 143 178c104 0 137 -60 140 -107h-84c-2 40 -15 68 -63 68c-59 0 -59 -69 -59 -139v-57h135v-34h-135v-431h-77z" />
    <glyph glyph-name="g" unicode="g" 
d="M437 381v-394c0 -104 -32 -191 -196 -191c-143 0 -182 59 -184 120h92c7 -39 23 -81 107 -81c104 0 104 103 104 165v74h-2c-17 -28 -50 -74 -125 -74c-123 0 -185 102 -185 235c0 134 51 241 188 241c74 0 109 -51 122 -75h2v64h152v-17c-26 -3 -75 -5 -75 -67zM360 205
v49c0 65 -13 183 -115 183c-94 0 -112 -124 -112 -209c0 -87 22 -189 120 -189c72 0 107 89 107 166z" />
    <glyph glyph-name="h" unicode="h" 
d="M83 0v595c0 62 -50 64 -78 66v17l155 22v-359h2c16 34 67 135 157 135c120 0 120 -110 120 -180v-296h-77v299c0 62 0 128 -67 128c-51 0 -135 -107 -135 -211v-216h-77z" />
    <glyph glyph-name="i" unicode="i" horiz-adv-x="241" 
d="M88 0v369c0 60 -47 63 -75 66v17l152 24v-476h-77zM123 572c-32 0 -57 25 -57 56s25 56 57 56c30 0 56 -25 56 -56c0 -33 -26 -56 -56 -56z" />
    <glyph glyph-name="j" unicode="j" horiz-adv-x="241" 
d="M170 476v-484c0 -66 -1 -196 -140 -196c-104 0 -142 61 -142 117h85c0 -39 8 -78 68 -78c52 0 52 68 52 136v398c0 60 -47 63 -75 66v17zM127 572c-31 0 -57 25 -57 56s26 56 57 56s57 -25 57 -56c0 -33 -26 -56 -57 -56z" />
    <glyph glyph-name="k" unicode="k" horiz-adv-x="463" 
d="M82 0v595c0 62 -49 64 -78 66v17l155 22v-431l188 196h68l-185 -193l219 -272h-93l-195 244h-2v-244h-77z" />
    <glyph glyph-name="l" unicode="l" horiz-adv-x="241" 
d="M83 0v595c0 62 -50 64 -78 66v17l155 22v-700h-77z" />
    <glyph glyph-name="m" unicode="m" horiz-adv-x="778" 
d="M96 0v369c0 60 -47 63 -76 66v17l153 24v-120h2c12 35 63 120 144 120c94 0 119 -49 119 -120h2c15 34 56 120 146 120c119 0 119 -80 119 -159v-317h-77v301c0 74 0 126 -68 126c-52 0 -121 -92 -121 -185v-242h-77v323c0 54 0 104 -66 104c-64 0 -123 -106 -123 -189
v-238h-77z" />
    <glyph glyph-name="n" unicode="n" horiz-adv-x="537" 
d="M95 0v369c0 60 -47 63 -76 66v17l153 24v-133h2c15 39 67 133 167 133c97 0 119 -49 119 -120v-356h-77v323c0 54 0 104 -70 104c-73 0 -141 -123 -141 -189v-238h-77z" />
    <glyph glyph-name="o" unicode="o" 
d="M260 -11c-134 0 -209 98 -209 241c0 147 61 246 207 246c131 0 210 -95 210 -245c0 -151 -68 -242 -208 -242zM136 230c0 -75 18 -202 125 -202c114 0 122 126 122 202c0 82 -16 207 -124 207c-118 0 -123 -125 -123 -207z" />
    <glyph glyph-name="p" unicode="p" 
d="M88 -213v582c0 63 -50 64 -79 67v17l156 23v-76h2c12 29 54 76 120 76c127 0 184 -103 184 -242c0 -130 -48 -245 -178 -245c-70 0 -113 46 -126 79h-2v-281h-77zM165 278v-72c0 -67 25 -178 113 -178c92 0 108 125 108 204c0 70 -19 205 -111 205
c-69 0 -110 -85 -110 -159z" />
    <glyph glyph-name="q" unicode="q" 
d="M355 205v71c0 76 -42 161 -110 161c-92 0 -111 -136 -111 -206c0 -79 16 -203 108 -203c88 0 113 111 113 177zM355 -213v281h-2c-14 -33 -56 -79 -126 -79c-130 0 -178 115 -178 244c0 140 57 243 184 243c66 0 108 -33 122 -53l57 53h20v-689h-77z" />
    <glyph glyph-name="r" unicode="r" horiz-adv-x="315" 
d="M84 0v366c0 63 -47 66 -76 69v17l153 24v-119h2c13 42 38 119 133 119c3 0 6 0 9 -1v-83c-11 3 -22 7 -33 7c-97 0 -111 -98 -111 -159v-240h-77z" />
    <glyph glyph-name="s" unicode="s" horiz-adv-x="370" 
d="M313 459v-60c-16 8 -65 38 -121 38c-43 0 -83 -16 -83 -64c0 -100 235 -84 235 -241c0 -100 -76 -143 -178 -143c-65 0 -104 12 -129 20v63c10 -5 71 -44 133 -44c60 0 104 22 104 85c0 102 -235 100 -235 232c0 77 46 131 163 131c50 0 94 -13 111 -17z" />
    <glyph glyph-name="t" unicode="t" horiz-adv-x="333" 
d="M307 32v-37c-19 -4 -38 -6 -57 -6c-134 0 -143 47 -143 141v301h-77v34h77v85l76 67v-152h124v-34h-123v-330c0 -60 36 -73 85 -73c13 0 26 2 38 4z" />
    <glyph glyph-name="u" unicode="u" horiz-adv-x="537" 
d="M385 0v110h-2c-13 -36 -60 -121 -150 -121c-112 0 -137 77 -137 188v192c0 60 -47 63 -75 66v17l152 24v-312c0 -65 16 -126 84 -126c66 0 128 123 128 188v143c0 60 -46 63 -75 66v17l152 24v-476h-77z" />
    <glyph glyph-name="v" unicode="v" horiz-adv-x="445" 
d="M217 -11l-152 366c-24 58 -31 85 -102 93v17h138l154 -367l133 367h54l-179 -476h-46z" />
    <glyph glyph-name="w" unicode="w" horiz-adv-x="685" 
d="M186 -11l-108 374c-19 63 -24 76 -85 85v17h129l102 -355h2l107 355h55l117 -358h2l92 358h51l-124 -476h-49l-124 377h-2l-117 -377h-48z" />
    <glyph glyph-name="x" unicode="x" horiz-adv-x="463" 
d="M23 0l181 234l-103 147c-38 55 -64 60 -108 67v17h145l113 -167l127 167h56l-156 -207l175 -258h-93l-131 195l-149 -195h-57z" />
    <glyph glyph-name="y" unicode="y" horiz-adv-x="445" 
d="M442 465l-184 -489c-42 -110 -68 -180 -162 -180c-106 0 -133 86 -133 122h87c0 -26 13 -83 60 -83c42 0 58 44 91 130l13 35l-148 352c-27 65 -38 91 -105 96v17h143l149 -362l136 362h53z" />
    <glyph glyph-name="z" unicode="z" horiz-adv-x="445" 
d="M32 0v39l269 387h-134c-82 0 -88 -31 -97 -74h-22l5 113h342v-39l-267 -387h133c91 0 114 16 123 74h23l-6 -113h-369z" />
    <glyph glyph-name="braceleft" unicode="{" 
d="M414 -218v-25c-100 4 -211 74 -211 170c0 36 6 66 12 96c7 35 16 68 16 94c0 62 -53 109 -110 127v24c57 18 110 60 110 127c0 26 -9 59 -16 94c-6 30 -12 60 -12 96c0 96 111 166 211 170v-25c-74 -17 -107 -79 -107 -136c0 -26 3 -53 7 -85c3 -24 7 -60 7 -79
c0 -111 -105 -153 -155 -174c50 -22 155 -67 155 -174c0 -19 -4 -55 -7 -79c-4 -32 -7 -59 -7 -85c0 -57 33 -119 107 -136z" />
    <glyph glyph-name="bar" unicode="|" horiz-adv-x="333" 
d="M135 -138v880h64v-880h-64z" />
    <glyph glyph-name="braceright" unicode="}" 
d="M108 -243v25c74 17 107 79 107 136c0 26 -3 53 -7 85c-3 24 -7 60 -7 79c0 107 105 152 155 174c-50 21 -155 63 -155 174c0 19 4 55 7 79c4 32 7 59 7 85c0 57 -33 119 -107 136v25c100 -4 211 -74 211 -170c0 -36 -6 -66 -12 -96c-7 -35 -16 -68 -16 -94
c0 -67 53 -109 110 -127v-24c-57 -18 -110 -65 -110 -127c0 -26 9 -59 16 -94c6 -30 12 -60 12 -96c0 -96 -111 -166 -211 -170z" />
    <glyph glyph-name="asciitilde" unicode="~" horiz-adv-x="575" 
d="M115 157h-60c0 50 0 171 97 171c41 0 65 -17 97 -40l104 -74c24 -18 42 -30 62 -30c46 0 46 70 46 113h59c0 -61 0 -173 -99 -173c-43 0 -67 18 -96 39l-107 77c-26 19 -39 28 -59 28c-44 0 -44 -63 -44 -111z" />
    <glyph glyph-name="uni00A0" unicode="&#xa0;" horiz-adv-x="297" 
 />
    <glyph glyph-name="exclamdown" unicode="&#xa1;" horiz-adv-x="315" 
d="M69 -141l30 492h44l29 -492h-103zM121 423c-35 0 -63 27 -63 61c0 33 28 60 63 60c34 0 62 -28 62 -60c0 -35 -28 -61 -62 -61z" />
    <glyph glyph-name="cent" unicode="&#xa2;" horiz-adv-x="426" 
d="M210 -93v90c-73 12 -170 84 -170 243c0 160 61 221 170 235v76h39v-76c125 -8 164 -70 166 -140h-89c0 58 -18 98 -77 107v-390c18 -11 49 -24 85 -24c21 0 43 3 64 10v-31c-14 -7 -77 -18 -104 -18c-15 0 -31 1 -45 3v-85h-39zM210 74v367c-50 -15 -90 -49 -90 -148
c0 -120 42 -183 90 -219z" />
    <glyph glyph-name="sterling" unicode="&#xa3;" horiz-adv-x="501" 
d="M118 0v303h-85v39h85v150c0 102 41 160 177 160c105 0 150 -54 152 -111h-87c-2 23 -14 72 -77 72c-84 0 -84 -70 -84 -136v-135h127v-39h-127v-185c0 -64 4 -79 67 -79h93c57 0 79 54 82 101h31l-11 -140h-343z" />
    <glyph glyph-name="currency" unicode="&#xa4;" horiz-adv-x="500" 
d="M45 118l-30 30l67 67c-33 36 -47 88 -47 136c0 49 17 100 48 138l-70 70l32 31l69 -68c39 28 88 46 137 46c48 0 97 -18 136 -46l69 68l32 -31l-70 -70c35 -36 48 -89 48 -138c0 -48 -15 -100 -47 -136l67 -67l-30 -30l-66 66c-44 -33 -90 -47 -139 -47
c-50 0 -103 18 -140 47zM76 351c0 -96 79 -173 175 -173c95 0 174 78 174 173c0 96 -78 176 -174 176c-97 0 -175 -80 -175 -176z" />
    <glyph glyph-name="yen" unicode="&#xa5;" 
d="M225 246v70l-29 48h-164v39h140l-93 152c-46 76 -55 92 -117 101v17h147l176 -293l181 293h66l-166 -270h126v-39h-150l-30 -48v-70h180v-39h-180v-207h-87v207h-193v39h193z" />
    <glyph glyph-name="brokenbar" unicode="&#xa6;" horiz-adv-x="241" 
d="M88 -138v352h64v-352h-64zM88 390v352h64v-352h-64z" />
    <glyph glyph-name="section" unicode="&#xa7;" horiz-adv-x="501" 
d="M254 488l71 -29c29 -12 113 -47 113 -120c0 -60 -54 -101 -74 -115c15 -15 53 -45 53 -99c0 -86 -74 -136 -190 -136c-110 0 -157 52 -164 111h87c8 -38 31 -77 95 -77c35 0 95 16 95 84c0 56 -60 79 -126 104l-38 14c-51 20 -120 46 -120 124c0 63 48 102 71 122
c-13 11 -44 38 -44 87c0 90 98 126 168 126c110 0 162 -50 168 -111h-87c-6 28 -20 77 -89 77c-44 0 -83 -19 -83 -71c0 -53 34 -67 94 -91zM207 292l96 -39c11 -5 21 -9 31 -14c12 13 44 39 44 73c0 55 -66 76 -102 91l-90 35c-10 4 -20 8 -30 13c-9 -9 -41 -36 -41 -71
c0 -51 49 -70 92 -88z" />
    <glyph glyph-name="dieresis" unicode="&#xa8;" horiz-adv-x="300" 
d="M61 550c-27 0 -51 22 -51 51c0 28 23 51 51 51s52 -23 52 -51s-24 -51 -52 -51zM238 550c-28 0 -52 22 -52 51c0 28 23 51 52 51c28 0 51 -23 51 -51s-23 -51 -51 -51z" />
    <glyph glyph-name="copyright" unicode="&#xa9;" horiz-adv-x="500" 
d="M337 420h21c-4 -30 -11 -96 -101 -96c-75 0 -129 56 -129 134c0 83 65 143 123 143c40 0 54 -15 71 -15c8 0 12 9 17 14h15v-101l-15 -3c-13 32 -30 85 -75 85c-47 0 -71 -44 -71 -122c0 -67 25 -112 74 -112c56 0 66 52 70 73zM250 235c-126 0 -234 99 -234 225
s108 224 234 224s234 -98 234 -224s-108 -225 -234 -225zM51 460c0 -107 91 -190 199 -190s199 83 199 190c0 105 -91 189 -199 189s-199 -84 -199 -189z" />
    <glyph glyph-name="ordfeminine" unicode="&#xaa;" horiz-adv-x="260" 
d="M171 280v32h-2c-16 -22 -36 -37 -76 -37s-68 28 -68 65c0 78 93 81 146 86v19c0 40 0 79 -45 79c-41 0 -43 -36 -44 -52h-54c3 35 25 74 96 74c61 0 92 -27 92 -78v-188h-45zM171 376v28c-23 0 -96 -5 -96 -51c0 -27 13 -47 36 -47c46 0 60 39 60 70z" />
    <glyph glyph-name="guillemotleft" unicode="&#xab;" horiz-adv-x="371" 
d="M146 58l-105 180l105 185h51l-60 -185l60 -180h-51zM279 58l-105 180l105 185h51l-60 -185l60 -180h-51z" />
    <glyph glyph-name="logicalnot" unicode="&#xac;" horiz-adv-x="575" 
d="M454 57v154h-398v52h462v-206h-64z" />
    <glyph glyph-name="uni00AD" unicode="&#xad;" horiz-adv-x="408" 
d="M54 214v63h300v-63h-300z" />
    <glyph glyph-name="registered" unicode="&#xae;" horiz-adv-x="500" 
d="M134 336v19c29 3 37 5 37 40v143c0 32 -8 32 -37 36v19h122c62 0 109 -9 109 -65c0 -48 -44 -57 -73 -64c62 -37 42 -92 68 -92c15 0 16 26 16 33h20c0 -23 -9 -70 -53 -70c-86 0 -32 123 -106 123h-11v-61c0 -39 4 -37 38 -42v-19h-130zM226 536v-57h21c29 0 57 7 57 45
c0 30 -9 50 -43 50s-35 -13 -35 -38zM250 235c-126 0 -234 99 -234 225s108 224 234 224s234 -98 234 -224s-108 -225 -234 -225zM51 460c0 -106 91 -190 199 -190s199 84 199 190c0 105 -91 189 -199 189s-199 -84 -199 -189z" />
    <glyph glyph-name="macron" unicode="&#xaf;" horiz-adv-x="300" 
d="M22 545v50h256v-50h-256z" />
    <glyph glyph-name="degree" unicode="&#xb0;" horiz-adv-x="334" 
d="M167 412c-62 0 -112 48 -112 108c0 61 50 109 112 109c61 0 112 -48 112 -109c0 -60 -51 -108 -112 -108zM98 520c0 -36 30 -65 69 -65c38 0 69 28 69 65c0 38 -31 66 -69 66c-39 0 -69 -29 -69 -66z" />
    <glyph glyph-name="plusminus" unicode="&#xb1;" horiz-adv-x="575" 
d="M57 -92v52h461v-52h-461zM253 0v211h-196v52h196v195h64v-195h201v-52h-201v-211h-64z" />
    <glyph glyph-name="twosuperior" unicode="&#xb2;" horiz-adv-x="352" 
d="M42 205v31c40 37 187 168 187 279c0 47 -24 80 -68 80c-57 0 -77 -44 -84 -71h-31c7 44 34 105 123 105c86 0 128 -41 128 -126c0 -103 -172 -235 -200 -261h122c52 0 60 22 68 66h22l-7 -103h-260z" />
    <glyph glyph-name="threesuperior" unicode="&#xb3;" horiz-adv-x="352" 
d="M72 532h-29c8 41 32 97 121 97c74 0 126 -39 126 -112c0 -53 -22 -72 -64 -95c46 -22 73 -39 73 -98c0 -91 -86 -125 -171 -125c-42 0 -82 9 -96 11v33c25 -5 50 -10 75 -10c63 0 124 32 124 100c0 62 -43 71 -88 73v32c27 0 82 2 82 78c0 53 -31 79 -71 79
c-54 0 -73 -36 -82 -63z" />
    <glyph glyph-name="acute" unicode="&#xb4;" horiz-adv-x="300" 
d="M118 545l34 115c9 31 19 42 49 42c20 0 38 -13 38 -34c0 -11 -7 -22 -19 -40l-59 -83h-43z" />
    <glyph glyph-name="mu" unicode="&#xb5;" horiz-adv-x="537" 
d="M96 -204v573c0 60 -47 63 -75 66v17l152 24v-312c0 -65 16 -126 84 -126c66 0 128 123 128 188v143c0 60 -46 63 -75 66v17l152 24v-476h-77v110h-2c-13 -36 -60 -121 -150 -121c-24 0 -44 4 -60 10v-190z" />
    <glyph glyph-name="paragraph" unicode="&#xb6;" 
d="M272 -231v437c-84 10 -221 65 -221 227c0 174 159 240 299 240h115v-37h-58v-867h-37v867h-61v-867h-37z" />
    <glyph glyph-name="periodcentered" unicode="&#xb7;" horiz-adv-x="241" 
d="M120 178c-32 0 -59 25 -59 57s27 57 59 57s60 -24 60 -55c0 -33 -28 -59 -60 -59z" />
    <glyph glyph-name="cedilla" unicode="&#xb8;" horiz-adv-x="300" 
d="M182 24l-21 -76c10 3 21 7 31 7c59 0 84 -32 84 -77c0 -43 -35 -82 -102 -82c-24 0 -48 6 -70 16v31c12 -4 29 -10 55 -10c29 0 52 21 52 47c0 30 -22 41 -37 41c-11 0 -23 -9 -27 -18h-34l34 121h35z" />
    <glyph glyph-name="onesuperior" unicode="&#xb9;" horiz-adv-x="352" 
d="M165 205v311c0 23 0 49 -28 49c-10 0 -21 -2 -41 -9l-3 15l105 58h27v-424h-60z" />
    <glyph glyph-name="ordmasculine" unicode="&#xba;" horiz-adv-x="297" 
d="M149 275c-75 0 -118 55 -118 134c0 81 35 137 118 137c73 0 118 -53 118 -137s-39 -134 -118 -134zM84 409c0 -41 9 -111 65 -111c62 0 65 69 65 111c0 45 -7 114 -65 114c-63 0 -65 -69 -65 -114z" />
    <glyph glyph-name="guillemotright" unicode="&#xbb;" horiz-adv-x="371" 
d="M174 58l61 184l-61 181h51l105 -181l-105 -184h-51zM41 58l60 184l-60 181h51l105 -181l-105 -184h-51z" />
    <glyph glyph-name="onequarter" unicode="&#xbc;" horiz-adv-x="816" 
d="M627 350l-128 -193h130v193h-2zM629 0v120h-181v35l182 268h59v-266h75v-37h-75v-120h-60zM227 0l208 618h47l-208 -618h-47zM123 199v317c0 23 0 49 -28 49c-10 0 -21 -2 -41 -9l-3 15l105 58h27v-430h-60z" />
    <glyph glyph-name="onehalf" unicode="&#xbd;" horiz-adv-x="816" 
d="M134 199v317c0 23 0 49 -28 49c-10 0 -21 -2 -41 -9l-3 15l105 58h27v-430h-60zM238 0l208 618h47l-208 -618h-47zM473 0v31c41 37 188 176 188 287c0 46 -25 79 -68 79c-58 0 -78 -44 -85 -71h-31c7 43 34 105 124 105c87 0 128 -45 128 -134
c0 -100 -173 -236 -200 -260h121c53 0 60 21 68 66h23l-7 -103h-261z" />
    <glyph glyph-name="threequarters" unicode="&#xbe;" horiz-adv-x="816" 
d="M669 350l-128 -193h130v193h-2zM671 0v120h-181v35l182 268h59v-266h75v-37h-75v-120h-60zM292 0l208 618h46l-207 -618h-47zM72 532h-29c8 41 32 97 121 97c74 0 126 -39 126 -112c0 -53 -22 -72 -64 -95c46 -22 73 -39 73 -105c0 -92 -86 -126 -171 -126
c-42 0 -82 10 -96 12v33c25 -5 50 -11 75 -11c63 0 124 32 124 101s-43 78 -88 80v32c27 0 82 2 82 78c0 53 -31 79 -71 79c-54 0 -73 -36 -82 -63z" />
    <glyph glyph-name="questiondown" unicode="&#xbf;" horiz-adv-x="463" 
d="M327 -32h87c-5 -51 -53 -121 -178 -121c-96 0 -187 50 -187 145c0 73 37 110 74 147l76 75c42 42 57 57 57 112v27h45v-56c0 -80 -10 -92 -58 -145l-58 -63c-24 -27 -51 -61 -51 -102c0 -63 45 -101 101 -101c73 0 89 53 92 82zM277 423c-33 0 -62 26 -62 60
c0 33 27 61 62 61s62 -28 62 -61c0 -34 -29 -60 -62 -60z" />
    <glyph glyph-name="Agrave" unicode="&#xc0;" horiz-adv-x="575" 
d="M0 0l207 555c7 18 15 38 15 54c0 26 -27 35 -77 47v17h172l258 -673h-97l-84 223h-252l-79 -223h-63zM270 567l-114 -305h227zM251 753l-58 83c-13 18 -20 29 -20 40c0 21 18 34 38 34c30 0 40 -11 49 -42l34 -115h-43z" />
    <glyph glyph-name="Aacute" unicode="&#xc1;" horiz-adv-x="575" 
d="M0 0l207 555c7 18 15 38 15 54c0 26 -27 35 -77 47v17h172l258 -673h-97l-84 223h-252l-79 -223h-63zM270 567l-114 -305h227zM256 753l34 115c9 31 19 42 49 42c20 0 38 -13 38 -34c0 -11 -7 -22 -19 -40l-59 -83h-43z" />
    <glyph glyph-name="Acircumflex" unicode="&#xc2;" horiz-adv-x="575" 
d="M0 0l207 555c7 18 15 38 15 54c0 26 -27 35 -77 47v17h172l258 -673h-97l-84 223h-252l-79 -223h-63zM270 567l-114 -305h227zM141 753l86 121c14 21 22 32 41 32c21 0 28 -10 42 -31l84 -122h-42l-82 67l-86 -67h-43z" />
    <glyph glyph-name="Atilde" unicode="&#xc3;" horiz-adv-x="575" 
d="M0 0l207 555c7 18 15 38 15 54c0 26 -27 35 -77 47v17h172l258 -673h-97l-84 223h-252l-79 -223h-63zM270 567l-114 -305h227zM182 758h-38c8 47 13 114 65 114c49 0 95 -56 127 -56c25 0 29 34 31 44h34c-4 -26 -4 -116 -69 -116c-39 0 -106 55 -125 55
c-23 0 -24 -27 -25 -41z" />
    <glyph glyph-name="Adieresis" unicode="&#xc4;" horiz-adv-x="575" 
d="M0 0l207 555c7 18 15 38 15 54c0 26 -27 35 -77 47v17h172l258 -673h-97l-84 223h-252l-79 -223h-63zM270 567l-114 -305h227zM179 758c-27 0 -51 22 -51 51c0 28 23 51 51 51s52 -23 52 -51s-24 -51 -52 -51zM356 758c-28 0 -52 22 -52 51c0 28 23 51 52 51
c28 0 51 -23 51 -51s-23 -51 -51 -51z" />
    <glyph glyph-name="Aring" unicode="&#xc5;" horiz-adv-x="575" 
d="M0 0l207 555c7 18 15 38 15 54c0 26 -27 35 -77 47v17h172l258 -673h-97l-84 223h-252l-79 -223h-63zM270 567l-114 -305h227zM262 753c-46 0 -85 37 -85 84c0 46 39 83 85 83c47 0 86 -37 86 -83c0 -47 -39 -84 -86 -84zM220 837c0 -23 19 -41 42 -41s43 18 43 41
c0 20 -19 40 -43 40c-23 0 -42 -20 -42 -40z" />
    <glyph glyph-name="AE" unicode="&#xc6;" horiz-adv-x="834" 
d="M0 0l325 555c10 18 18 37 18 55c0 26 -17 44 -81 46v17h502l5 -122h-31c-10 52 -9 83 -92 83h-82c-58 0 -64 -12 -61 -66l13 -224h93c83 0 90 36 98 83h23v-207h-23c-10 58 -13 85 -98 85h-90l12 -208c4 -58 10 -58 88 -58h50c69 0 74 21 88 97h31l-7 -136h-331l-19 305
h-190l-178 -305h-63zM412 605l-148 -261h165l-15 261h-2z" />
    <glyph glyph-name="Ccedilla" unicode="&#xc7;" horiz-adv-x="556" 
d="M241 -97l27 97c-140 38 -214 186 -214 359c0 182 61 325 266 325c151 0 205 -79 212 -147h-98c-5 31 -22 102 -120 102c-106 0 -162 -101 -162 -254c0 -142 28 -351 247 -351c59 0 121 21 133 25v-42c-48 -16 -95 -28 -188 -28c-15 0 -30 1 -43 4l-12 -45c10 3 21 7 31 7
c59 0 84 -32 84 -77c0 -43 -35 -82 -102 -82c-24 0 -48 6 -70 16v31c12 -4 29 -10 55 -10c29 0 52 21 52 47c0 30 -22 41 -37 41c-11 0 -23 -9 -27 -18h-34z" />
    <glyph glyph-name="Egrave" unicode="&#xc8;" horiz-adv-x="538" 
d="M98 0v568c0 57 -14 76 -101 88v17h472l5 -122h-31c-10 52 -9 83 -92 83h-105c-57 0 -61 -12 -61 -66v-197h127c83 0 90 36 98 83h23v-207h-23c-10 58 -13 85 -98 85h-127v-235c0 -58 9 -58 82 -58h108c68 0 73 21 87 97h31l-7 -136h-388zM247 753l-58 83
c-13 18 -20 29 -20 40c0 21 18 34 38 34c30 0 40 -11 49 -42l34 -115h-43z" />
    <glyph glyph-name="Eacute" unicode="&#xc9;" horiz-adv-x="538" 
d="M98 0v568c0 57 -14 76 -101 88v17h472l5 -122h-31c-10 52 -9 83 -92 83h-105c-57 0 -61 -12 -61 -66v-197h127c83 0 90 36 98 83h23v-207h-23c-10 58 -13 85 -98 85h-127v-235c0 -58 9 -58 82 -58h108c68 0 73 21 87 97h31l-7 -136h-388zM237 753l34 115
c9 31 19 42 49 42c20 0 38 -13 38 -34c0 -11 -7 -22 -19 -40l-59 -83h-43z" />
    <glyph glyph-name="Ecircumflex" unicode="&#xca;" horiz-adv-x="538" 
d="M98 0v568c0 57 -14 76 -101 88v17h472l5 -122h-31c-10 52 -9 83 -92 83h-105c-57 0 -61 -12 -61 -66v-197h127c83 0 90 36 98 83h23v-207h-23c-10 58 -13 85 -98 85h-127v-235c0 -58 9 -58 82 -58h108c68 0 73 21 87 97h31l-7 -136h-388zM142 753l86 121
c14 21 22 32 41 32c21 0 28 -10 42 -31l84 -122h-42l-82 67l-86 -67h-43z" />
    <glyph glyph-name="Edieresis" unicode="&#xcb;" horiz-adv-x="538" 
d="M98 0v568c0 57 -14 76 -101 88v17h472l5 -122h-31c-10 52 -9 83 -92 83h-105c-57 0 -61 -12 -61 -66v-197h127c83 0 90 36 98 83h23v-207h-23c-10 58 -13 85 -98 85h-127v-235c0 -58 9 -58 82 -58h108c68 0 73 21 87 97h31l-7 -136h-388zM180 758c-27 0 -51 22 -51 51
c0 28 23 51 51 51s52 -23 52 -51s-24 -51 -52 -51zM357 758c-28 0 -52 22 -52 51c0 28 23 51 52 51c28 0 51 -23 51 -51s-23 -51 -51 -51z" />
    <glyph glyph-name="Igrave" unicode="&#xcc;" horiz-adv-x="278" 
d="M100 0v559c0 69 -31 66 -100 74v17l187 23v-673h-87zM117 753l-58 83c-13 18 -20 29 -20 40c0 21 18 34 38 34c30 0 40 -11 49 -42l34 -115h-43z" />
    <glyph glyph-name="Iacute" unicode="&#xcd;" horiz-adv-x="278" 
d="M100 0v559c0 69 -31 66 -100 74v17l187 23v-673h-87zM107 753l34 115c9 31 19 42 49 42c20 0 38 -13 38 -34c0 -11 -7 -22 -19 -40l-59 -83h-43z" />
    <glyph glyph-name="Icircumflex" unicode="&#xce;" horiz-adv-x="278" 
d="M100 0v559c0 69 -31 66 -100 74v17l187 23v-673h-87zM2 753l86 121c14 21 22 32 41 32c21 0 28 -10 42 -31l84 -122h-42l-82 67l-86 -67h-43z" />
    <glyph glyph-name="Idieresis" unicode="&#xcf;" horiz-adv-x="278" 
d="M100 0v559c0 69 -31 66 -100 74v17l187 23v-673h-87zM50 758c-27 0 -51 22 -51 51c0 28 23 51 51 51s52 -23 52 -51s-24 -51 -52 -51zM227 758c-28 0 -52 22 -52 51c0 28 23 51 52 51c28 0 51 -23 51 -51s-23 -51 -51 -51z" />
    <glyph glyph-name="Eth" unicode="&#xd0;" horiz-adv-x="630" 
d="M97 0v327h-100v39h100v193c0 76 -13 80 -100 97v17h212c212 0 367 -41 367 -338c0 -295 -162 -335 -371 -335h-108zM184 327v-214c0 -49 0 -74 53 -74c161 0 241 88 241 297c0 172 -47 298 -226 298c-60 0 -68 -10 -68 -75v-193h143v-39h-143z" />
    <glyph glyph-name="Ntilde" unicode="&#xd1;" horiz-adv-x="649" 
d="M95 0v555c0 80 -14 87 -100 101v17h200l314 -546h2v546h52v-673h-76l-338 587h-2v-587h-52zM234 758h-38c8 47 13 114 65 114c49 0 95 -56 127 -56c25 0 29 34 31 44h34c-4 -26 -4 -116 -69 -116c-39 0 -106 55 -125 55c-23 0 -24 -27 -25 -41z" />
    <glyph glyph-name="Ograve" unicode="&#xd2;" horiz-adv-x="630" 
d="M316 -11c-206 0 -262 148 -262 347c0 214 63 348 262 348c200 0 260 -149 260 -348c0 -212 -62 -347 -260 -347zM316 28c151 0 162 171 162 308c0 126 -7 309 -162 309c-153 0 -164 -171 -164 -309c0 -125 7 -308 164 -308zM293 753l-58 83c-13 18 -20 29 -20 40
c0 21 18 34 38 34c30 0 40 -11 49 -42l34 -115h-43z" />
    <glyph glyph-name="Oacute" unicode="&#xd3;" horiz-adv-x="630" 
d="M316 -11c-206 0 -262 148 -262 347c0 214 63 348 262 348c200 0 260 -149 260 -348c0 -212 -62 -347 -260 -347zM316 28c151 0 162 171 162 308c0 126 -7 309 -162 309c-153 0 -164 -171 -164 -309c0 -125 7 -308 164 -308zM283 753l34 115c9 31 19 42 49 42
c20 0 38 -13 38 -34c0 -11 -7 -22 -19 -40l-59 -83h-43z" />
    <glyph glyph-name="Ocircumflex" unicode="&#xd4;" horiz-adv-x="630" 
d="M316 -11c-206 0 -262 148 -262 347c0 214 63 348 262 348c200 0 260 -149 260 -348c0 -212 -62 -347 -260 -347zM316 28c151 0 162 171 162 308c0 126 -7 309 -162 309c-153 0 -164 -171 -164 -309c0 -125 7 -308 164 -308zM188 753l86 121c14 21 22 32 41 32
c21 0 28 -10 42 -31l84 -122h-42l-82 67l-86 -67h-43z" />
    <glyph glyph-name="Otilde" unicode="&#xd5;" horiz-adv-x="630" 
d="M316 -11c-206 0 -262 148 -262 347c0 214 63 348 262 348c200 0 260 -149 260 -348c0 -212 -62 -347 -260 -347zM316 28c151 0 162 171 162 308c0 126 -7 309 -162 309c-153 0 -164 -171 -164 -309c0 -125 7 -308 164 -308zM224 758h-38c8 47 13 114 65 114
c49 0 95 -56 127 -56c25 0 29 34 31 44h34c-4 -26 -4 -116 -69 -116c-39 0 -106 55 -125 55c-23 0 -24 -27 -25 -41z" />
    <glyph glyph-name="Odieresis" unicode="&#xd6;" horiz-adv-x="630" 
d="M316 -11c-206 0 -262 148 -262 347c0 214 63 348 262 348c200 0 260 -149 260 -348c0 -212 -62 -347 -260 -347zM316 28c151 0 162 171 162 308c0 126 -7 309 -162 309c-153 0 -164 -171 -164 -309c0 -125 7 -308 164 -308zM226 758c-27 0 -51 22 -51 51
c0 28 23 51 51 51s52 -23 52 -51s-24 -51 -52 -51zM403 758c-28 0 -52 22 -52 51c0 28 23 51 52 51c28 0 51 -23 51 -51s-23 -51 -51 -51z" />
    <glyph glyph-name="multiply" unicode="&#xd7;" horiz-adv-x="575" 
d="M93 -11l-38 36l186 191l-186 186l50 48l187 -183l181 182l40 -35l-183 -187l189 -191l-50 -47l-189 187z" />
    <glyph glyph-name="Oslash" unicode="&#xd8;" horiz-adv-x="630" 
d="M62 -14l56 90c-37 50 -66 116 -66 258c0 185 75 350 262 350c76 0 120 -18 154 -38l42 68l32 -19l-46 -74c44 -55 82 -116 82 -287c0 -193 -84 -345 -265 -345c-92 0 -141 35 -169 59l-49 -79zM456 555l-273 -443c11 -18 47 -84 132 -84c144 0 165 186 165 308
c0 113 -10 162 -24 219zM166 154l268 437c-22 24 -51 54 -120 54c-140 0 -164 -199 -164 -310c0 -105 8 -137 16 -181z" />
    <glyph glyph-name="Ugrave" unicode="&#xd9;" horiz-adv-x="630" 
d="M551 673v-424c0 -123 0 -260 -225 -260c-215 0 -231 117 -231 256v314c0 69 -32 66 -100 74v17l187 23v-428c0 -73 0 -217 145 -217c165 0 165 115 165 209v436h59zM313 753l-58 83c-13 18 -20 29 -20 40c0 21 18 34 38 34c30 0 40 -11 49 -42l34 -115h-43z" />
    <glyph glyph-name="Uacute" unicode="&#xda;" horiz-adv-x="630" 
d="M551 673v-424c0 -123 0 -260 -225 -260c-215 0 -231 117 -231 256v314c0 69 -32 66 -100 74v17l187 23v-428c0 -73 0 -217 145 -217c165 0 165 115 165 209v436h59zM293 753l34 115c9 31 19 42 49 42c20 0 38 -13 38 -34c0 -11 -7 -22 -19 -40l-59 -83h-43z" />
    <glyph glyph-name="Ucircumflex" unicode="&#xdb;" horiz-adv-x="630" 
d="M551 673v-424c0 -123 0 -260 -225 -260c-215 0 -231 117 -231 256v314c0 69 -32 66 -100 74v17l187 23v-428c0 -73 0 -217 145 -217c165 0 165 115 165 209v436h59zM188 753l86 121c14 21 22 32 41 32c21 0 28 -10 42 -31l84 -122h-42l-82 67l-86 -67h-43z" />
    <glyph glyph-name="Udieresis" unicode="&#xdc;" horiz-adv-x="630" 
d="M551 673v-424c0 -123 0 -260 -225 -260c-215 0 -231 117 -231 256v314c0 69 -32 66 -100 74v17l187 23v-428c0 -73 0 -217 145 -217c165 0 165 115 165 209v436h59zM241 758c-27 0 -51 22 -51 51c0 28 23 51 51 51s52 -23 52 -51s-24 -51 -52 -51zM418 758
c-28 0 -52 22 -52 51c0 28 23 51 52 51c28 0 51 -23 51 -51s-23 -51 -51 -51z" />
    <glyph glyph-name="Yacute" unicode="&#xdd;" 
d="M211 0v316l-142 239c-40 68 -52 96 -120 101v17h149l174 -293l181 293h66l-221 -357v-316h-87zM248 753l34 115c9 31 19 42 49 42c20 0 38 -13 38 -34c0 -11 -7 -22 -19 -40l-59 -83h-43z" />
    <glyph glyph-name="Thorn" unicode="&#xde;" horiz-adv-x="612" 
d="M184 496v-290h106c117 0 175 29 175 137c0 102 -37 153 -175 153h-106zM97 0v577c0 62 -55 64 -90 67v17l177 23v-149h140c141 0 239 -21 239 -193c0 -138 -95 -175 -216 -175h-163v-167h-87z" />
    <glyph glyph-name="germandbls" unicode="&#xdf;" 
d="M84 0v440c0 95 0 244 173 244c93 0 177 -51 177 -173c0 -92 -59 -126 -104 -143v-2c83 -8 138 -60 138 -178c0 -117 -51 -199 -192 -199c-24 0 -48 2 -72 7v46c14 -6 33 -14 65 -14c106 0 114 96 114 163c0 140 -67 155 -138 155v35c52 0 104 25 104 133
c0 86 -45 131 -94 131c-92 0 -94 -102 -94 -188v-457h-77z" />
    <glyph glyph-name="agrave" unicode="&#xe0;" horiz-adv-x="463" 
d="M308 0v64c-23 -27 -64 -75 -142 -75c-72 0 -120 49 -120 118c0 143 197 147 262 149v39c0 70 0 142 -84 142c-76 0 -81 -62 -83 -88h-89c4 59 43 127 175 127c134 0 158 -71 158 -163v-313h-77zM308 166v59c-42 -1 -177 -7 -177 -105c0 -35 20 -82 76 -82
c68 0 101 78 101 128zM210 545l-58 83c-13 18 -20 29 -20 40c0 21 18 34 38 34c30 0 40 -11 49 -42l34 -115h-43z" />
    <glyph glyph-name="aacute" unicode="&#xe1;" horiz-adv-x="463" 
d="M308 0v64c-23 -27 -64 -75 -142 -75c-72 0 -120 49 -120 118c0 143 197 147 262 149v39c0 70 0 142 -84 142c-76 0 -81 -62 -83 -88h-89c4 59 43 127 175 127c134 0 158 -71 158 -163v-313h-77zM308 166v59c-42 -1 -177 -7 -177 -105c0 -35 20 -82 76 -82
c68 0 101 78 101 128zM200 545l34 115c9 31 19 42 49 42c20 0 38 -13 38 -34c0 -11 -7 -22 -19 -40l-59 -83h-43z" />
    <glyph glyph-name="acircumflex" unicode="&#xe2;" horiz-adv-x="463" 
d="M308 0v64c-23 -27 -64 -75 -142 -75c-72 0 -120 49 -120 118c0 143 197 147 262 149v39c0 70 0 142 -84 142c-76 0 -81 -62 -83 -88h-89c4 59 43 127 175 127c134 0 158 -71 158 -163v-313h-77zM308 166v59c-42 -1 -177 -7 -177 -105c0 -35 20 -82 76 -82
c68 0 101 78 101 128zM105 545l86 121c14 21 22 32 41 32c21 0 28 -10 42 -31l84 -122h-42l-82 67l-86 -67h-43z" />
    <glyph glyph-name="atilde" unicode="&#xe3;" horiz-adv-x="463" 
d="M308 0v64c-23 -27 -64 -75 -142 -75c-72 0 -120 49 -120 118c0 143 197 147 262 149v39c0 70 0 142 -84 142c-76 0 -81 -62 -83 -88h-89c4 59 43 127 175 127c134 0 158 -71 158 -163v-313h-77zM308 166v59c-42 -1 -177 -7 -177 -105c0 -35 20 -82 76 -82
c68 0 101 78 101 128zM141 550h-38c8 47 13 114 65 114c49 0 95 -56 127 -56c25 0 29 34 31 44h34c-4 -26 -4 -116 -69 -116c-39 0 -106 55 -125 55c-23 0 -24 -27 -25 -41z" />
    <glyph glyph-name="adieresis" unicode="&#xe4;" horiz-adv-x="463" 
d="M308 0v64c-23 -27 -64 -75 -142 -75c-72 0 -120 49 -120 118c0 143 197 147 262 149v39c0 70 0 142 -84 142c-76 0 -81 -62 -83 -88h-89c4 59 43 127 175 127c134 0 158 -71 158 -163v-313h-77zM308 166v59c-42 -1 -177 -7 -177 -105c0 -35 20 -82 76 -82
c68 0 101 78 101 128zM143 550c-27 0 -51 22 -51 51c0 28 23 51 51 51s52 -23 52 -51s-24 -51 -52 -51zM320 550c-28 0 -52 22 -52 51c0 28 23 51 52 51c28 0 51 -23 51 -51s-23 -51 -51 -51z" />
    <glyph glyph-name="aring" unicode="&#xe5;" horiz-adv-x="463" 
d="M308 0v64c-23 -27 -64 -75 -142 -75c-72 0 -120 49 -120 118c0 143 197 147 262 149v39c0 70 0 142 -84 142c-76 0 -81 -62 -83 -88h-89c4 59 43 127 175 127c134 0 158 -71 158 -163v-313h-77zM308 166v59c-42 -1 -177 -7 -177 -105c0 -35 20 -82 76 -82
c68 0 101 78 101 128zM221 545c-46 0 -85 37 -85 84c0 46 39 83 85 83c47 0 86 -37 86 -83c0 -47 -39 -84 -86 -84zM179 629c0 -23 19 -41 42 -41s43 18 43 41c0 20 -19 40 -43 40c-23 0 -42 -20 -42 -40z" />
    <glyph glyph-name="ae" unicode="&#xe6;" horiz-adv-x="742" 
d="M688 40v-33c-12 -5 -61 -18 -124 -18c-84 0 -152 43 -192 101c-22 -51 -76 -101 -195 -101c-79 0 -131 53 -131 129c0 150 215 156 285 156v21c0 70 0 142 -101 142c-73 0 -87 -62 -89 -88h-89c4 59 44 127 181 127c80 0 116 -27 139 -67c37 38 85 67 149 67
c101 0 181 -69 181 -221v-15h-294v-21c0 -78 71 -191 209 -191c25 0 49 6 71 12zM331 166v74c-46 0 -200 -8 -200 -120c0 -35 23 -82 87 -82c77 0 113 67 113 128zM615 274v9c0 87 -25 154 -90 154c-89 0 -114 -118 -117 -163h207z" />
    <glyph glyph-name="ccedilla" unicode="&#xe7;" horiz-adv-x="426" 
d="M176 -97l28 98c-112 29 -155 122 -155 246c0 126 53 229 197 229c107 0 170 -63 170 -127h-93c0 41 -18 88 -85 88c-63 0 -104 -56 -104 -156c0 -120 63 -253 207 -253c18 0 37 3 55 6v-29c-21 -7 -58 -16 -107 -16c-19 0 -37 1 -52 5l-13 -46c10 3 21 7 31 7
c59 0 84 -32 84 -77c0 -43 -35 -82 -102 -82c-24 0 -48 6 -70 16v31c12 -4 29 -10 55 -10c29 0 52 21 52 47c0 30 -22 41 -37 41c-11 0 -23 -9 -27 -18h-34z" />
    <glyph glyph-name="egrave" unicode="&#xe8;" horiz-adv-x="445" 
d="M399 40v-33c-12 -5 -62 -18 -124 -18c-147 0 -233 91 -233 258c0 144 55 229 201 229c94 0 168 -55 168 -174v-15h-292v-21c0 -97 70 -238 209 -238c24 0 49 6 71 12zM324 321v9c0 56 -34 107 -94 107c-91 0 -107 -82 -110 -116h204zM201 545l-58 83
c-13 18 -20 29 -20 40c0 21 18 34 38 34c30 0 40 -11 49 -42l34 -115h-43z" />
    <glyph glyph-name="eacute" unicode="&#xe9;" horiz-adv-x="445" 
d="M399 40v-33c-12 -5 -62 -18 -124 -18c-147 0 -233 91 -233 258c0 144 55 229 201 229c94 0 168 -55 168 -174v-15h-292v-21c0 -97 70 -238 209 -238c24 0 49 6 71 12zM324 321v9c0 56 -34 107 -94 107c-91 0 -107 -82 -110 -116h204zM201 545l34 115c9 31 19 42 49 42
c20 0 38 -13 38 -34c0 -11 -7 -22 -19 -40l-59 -83h-43z" />
    <glyph glyph-name="ecircumflex" unicode="&#xea;" horiz-adv-x="445" 
d="M399 40v-33c-12 -5 -62 -18 -124 -18c-147 0 -233 91 -233 258c0 144 55 229 201 229c94 0 168 -55 168 -174v-15h-292v-21c0 -97 70 -238 209 -238c24 0 49 6 71 12zM324 321v9c0 56 -34 107 -94 107c-91 0 -107 -82 -110 -116h204zM96 545l86 121c14 21 22 32 41 32
c21 0 28 -10 42 -31l84 -122h-42l-82 67l-86 -67h-43z" />
    <glyph glyph-name="edieresis" unicode="&#xeb;" horiz-adv-x="445" 
d="M399 40v-33c-12 -5 -62 -18 -124 -18c-147 0 -233 91 -233 258c0 144 55 229 201 229c94 0 168 -55 168 -174v-15h-292v-21c0 -97 70 -238 209 -238c24 0 49 6 71 12zM324 321v9c0 56 -34 107 -94 107c-91 0 -107 -82 -110 -116h204zM134 550c-27 0 -51 22 -51 51
c0 28 23 51 51 51s52 -23 52 -51s-24 -51 -52 -51zM311 550c-28 0 -52 22 -52 51c0 28 23 51 52 51c28 0 51 -23 51 -51s-23 -51 -51 -51z" />
    <glyph glyph-name="igrave" unicode="&#xec;" horiz-adv-x="241" 
d="M88 0v369c0 60 -47 63 -75 66v17l152 24v-476h-77zM99 545l-58 83c-13 18 -20 29 -20 40c0 21 18 34 38 34c30 0 40 -11 49 -42l34 -115h-43z" />
    <glyph glyph-name="iacute" unicode="&#xed;" horiz-adv-x="241" 
d="M88 0v369c0 60 -47 63 -75 66v17l152 24v-476h-77zM89 545l34 115c9 31 19 42 49 42c20 0 38 -13 38 -34c0 -11 -7 -22 -19 -40l-59 -83h-43z" />
    <glyph glyph-name="icircumflex" unicode="&#xee;" horiz-adv-x="241" 
d="M88 0v369c0 60 -47 63 -75 66v17l152 24v-476h-77zM-17 545l86 121c14 21 22 32 41 32c21 0 28 -10 42 -31l84 -122h-42l-82 67l-86 -67h-43z" />
    <glyph glyph-name="idieresis" unicode="&#xef;" horiz-adv-x="241" 
d="M88 0v369c0 60 -47 63 -75 66v17l152 24v-476h-77zM32 550c-27 0 -51 22 -51 51c0 28 23 51 51 51s52 -23 52 -51s-24 -51 -52 -51zM209 550c-28 0 -52 22 -52 51c0 28 23 51 52 51c28 0 51 -23 51 -51s-23 -51 -51 -51z" />
    <glyph glyph-name="eth" unicode="&#xf0;" 
d="M365 594l-54 -23c64 -57 157 -144 157 -340c0 -151 -68 -242 -208 -242c-134 0 -209 98 -209 241c0 146 61 246 207 246c32 0 62 -12 86 -32l2 2c-27 43 -51 69 -95 102l-89 -35l-14 33l66 26c-36 19 -65 34 -101 43v3h127c16 -8 25 -14 36 -22l75 30zM136 230
c0 -75 18 -202 125 -202c114 0 122 126 122 202c0 82 -16 207 -124 207c-118 0 -123 -125 -123 -207z" />
    <glyph glyph-name="ntilde" unicode="&#xf1;" horiz-adv-x="537" 
d="M95 0v369c0 60 -47 63 -76 66v17l153 24v-133h2c15 39 67 133 167 133c97 0 119 -49 119 -120v-356h-77v323c0 54 0 104 -70 104c-73 0 -141 -123 -141 -189v-238h-77zM178 550h-38c8 47 13 114 65 114c49 0 95 -56 127 -56c25 0 29 34 31 44h34c-4 -26 -4 -116 -69 -116
c-39 0 -106 55 -125 55c-23 0 -24 -27 -25 -41z" />
    <glyph glyph-name="ograve" unicode="&#xf2;" 
d="M260 -11c-134 0 -209 98 -209 241c0 147 61 246 207 246c131 0 210 -95 210 -245c0 -151 -68 -242 -208 -242zM136 230c0 -75 18 -202 125 -202c114 0 122 126 122 202c0 82 -16 207 -124 207c-118 0 -123 -125 -123 -207zM238 545l-58 83c-13 18 -20 29 -20 40
c0 21 18 34 38 34c30 0 40 -11 49 -42l34 -115h-43z" />
    <glyph glyph-name="oacute" unicode="&#xf3;" 
d="M260 -11c-134 0 -209 98 -209 241c0 147 61 246 207 246c131 0 210 -95 210 -245c0 -151 -68 -242 -208 -242zM136 230c0 -75 18 -202 125 -202c114 0 122 126 122 202c0 82 -16 207 -124 207c-118 0 -123 -125 -123 -207zM228 545l34 115c9 31 19 42 49 42
c20 0 38 -13 38 -34c0 -11 -7 -22 -19 -40l-59 -83h-43z" />
    <glyph glyph-name="ocircumflex" unicode="&#xf4;" 
d="M260 -11c-134 0 -209 98 -209 241c0 147 61 246 207 246c131 0 210 -95 210 -245c0 -151 -68 -242 -208 -242zM136 230c0 -75 18 -202 125 -202c114 0 122 126 122 202c0 82 -16 207 -124 207c-118 0 -123 -125 -123 -207zM133 545l86 121c14 21 22 32 41 32
c21 0 28 -10 42 -31l84 -122h-42l-82 67l-86 -67h-43z" />
    <glyph glyph-name="otilde" unicode="&#xf5;" 
d="M260 -11c-134 0 -209 98 -209 241c0 147 61 246 207 246c131 0 210 -95 210 -245c0 -151 -68 -242 -208 -242zM136 230c0 -75 18 -202 125 -202c114 0 122 126 122 202c0 82 -16 207 -124 207c-118 0 -123 -125 -123 -207zM169 550h-38c8 47 13 114 65 114
c49 0 95 -56 127 -56c25 0 29 34 31 44h34c-4 -26 -4 -116 -69 -116c-39 0 -106 55 -125 55c-23 0 -24 -27 -25 -41z" />
    <glyph glyph-name="odieresis" unicode="&#xf6;" 
d="M260 -11c-134 0 -209 98 -209 241c0 147 61 246 207 246c131 0 210 -95 210 -245c0 -151 -68 -242 -208 -242zM136 230c0 -75 18 -202 125 -202c114 0 122 126 122 202c0 82 -16 207 -124 207c-118 0 -123 -125 -123 -207zM171 550c-27 0 -51 22 -51 51c0 28 23 51 51 51
s52 -23 52 -51s-24 -51 -52 -51zM348 550c-28 0 -52 22 -52 51c0 28 23 51 52 51c28 0 51 -23 51 -51s-23 -51 -51 -51z" />
    <glyph glyph-name="divide" unicode="&#xf7;" horiz-adv-x="575" 
d="M287 9c-30 0 -56 23 -56 54c0 30 25 54 56 54c30 0 57 -22 57 -53s-26 -55 -57 -55zM287 357c-30 0 -56 24 -56 54c0 29 25 54 56 54c30 0 57 -23 57 -54c0 -29 -26 -54 -57 -54zM57 211v52h461v-52h-461z" />
    <glyph glyph-name="oslash" unicode="&#xf8;" 
d="M87 -44l-27 15l48 75c-38 46 -57 110 -57 184c0 147 61 246 207 246c41 0 76 -8 107 -25l39 61l26 -17l-39 -61c54 -36 77 -113 77 -203c0 -151 -68 -242 -208 -242c-51 0 -95 12 -129 36zM145 105l193 303c-20 20 -45 33 -79 33c-118 0 -123 -129 -123 -211
c0 -35 2 -82 9 -125zM358 382l-197 -311c21 -27 52 -47 100 -47c114 0 122 130 122 206c0 46 -5 105 -25 152z" />
    <glyph glyph-name="ugrave" unicode="&#xf9;" horiz-adv-x="537" 
d="M385 0v110h-2c-13 -36 -60 -121 -150 -121c-112 0 -137 77 -137 188v192c0 60 -47 63 -75 66v17l152 24v-312c0 -65 16 -126 84 -126c66 0 128 123 128 188v143c0 60 -46 63 -75 66v17l152 24v-476h-77zM247 545l-58 83c-13 18 -20 29 -20 40c0 21 18 34 38 34
c30 0 40 -11 49 -42l34 -115h-43z" />
    <glyph glyph-name="uacute" unicode="&#xfa;" horiz-adv-x="537" 
d="M385 0v110h-2c-13 -36 -60 -121 -150 -121c-112 0 -137 77 -137 188v192c0 60 -47 63 -75 66v17l152 24v-312c0 -65 16 -126 84 -126c66 0 128 123 128 188v143c0 60 -46 63 -75 66v17l152 24v-476h-77zM237 545l34 115c9 31 19 42 49 42c20 0 38 -13 38 -34
c0 -11 -7 -22 -19 -40l-59 -83h-43z" />
    <glyph glyph-name="ucircumflex" unicode="&#xfb;" horiz-adv-x="537" 
d="M385 0v110h-2c-13 -36 -60 -121 -150 -121c-112 0 -137 77 -137 188v192c0 60 -47 63 -75 66v17l152 24v-312c0 -65 16 -126 84 -126c66 0 128 123 128 188v143c0 60 -46 63 -75 66v17l152 24v-476h-77zM142 545l86 121c14 21 22 32 41 32c21 0 28 -10 42 -31l84 -122
h-42l-82 67l-86 -67h-43z" />
    <glyph glyph-name="udieresis" unicode="&#xfc;" horiz-adv-x="537" 
d="M385 0v110h-2c-13 -36 -60 -121 -150 -121c-112 0 -137 77 -137 188v192c0 60 -47 63 -75 66v17l152 24v-312c0 -65 16 -126 84 -126c66 0 128 123 128 188v143c0 60 -46 63 -75 66v17l152 24v-476h-77zM180 550c-27 0 -51 22 -51 51c0 28 23 51 51 51s52 -23 52 -51
s-24 -51 -52 -51zM357 550c-28 0 -52 22 -52 51c0 28 23 51 52 51c28 0 51 -23 51 -51s-23 -51 -51 -51z" />
    <glyph glyph-name="yacute" unicode="&#xfd;" horiz-adv-x="445" 
d="M442 465l-184 -489c-42 -110 -68 -180 -162 -180c-106 0 -133 86 -133 122h87c0 -26 13 -83 60 -83c42 0 58 44 91 130l13 35l-148 352c-27 65 -38 91 -105 96v17h143l149 -362l136 362h53zM221 545l34 115c9 31 19 42 49 42c20 0 38 -13 38 -34c0 -11 -7 -22 -19 -40
l-59 -83h-43z" />
    <glyph glyph-name="thorn" unicode="&#xfe;" 
d="M87 -213v779c0 63 -57 64 -90 67v17l167 23v-274h2c12 29 54 77 120 77c127 0 184 -104 184 -243c0 -129 -48 -244 -178 -244c-70 0 -113 46 -126 79h-2v-270zM164 276v-71c0 -66 25 -177 113 -177c93 0 108 124 108 203c0 70 -18 206 -111 206c-69 0 -110 -85 -110 -161
z" />
    <glyph glyph-name="ydieresis" unicode="&#xff;" horiz-adv-x="445" 
d="M442 465l-184 -489c-42 -110 -68 -180 -162 -180c-106 0 -133 86 -133 122h87c0 -26 13 -83 60 -83c42 0 58 44 91 130l13 35l-148 352c-27 65 -38 91 -105 96v17h143l149 -362l136 362h53zM154 550c-27 0 -51 22 -51 51c0 28 23 51 51 51s52 -23 52 -51s-24 -51 -52 -51
zM331 550c-28 0 -52 22 -52 51c0 28 23 51 52 51c28 0 51 -23 51 -51s-23 -51 -51 -51z" />
    <glyph glyph-name="dotlessi" unicode="&#x131;" horiz-adv-x="241" 
d="M88 0v369c0 60 -47 63 -75 66v17l152 24v-476h-77z" />
    <glyph glyph-name="Lslash" unicode="&#x141;" horiz-adv-x="482" 
d="M98 0v300l-101 -72v48l101 72v211c0 69 -31 66 -101 74v17l188 23v-262l119 85v-47l-119 -86v-236c0 -82 0 -88 81 -88h89c75 0 78 42 86 109h31l-5 -148h-369z" />
    <glyph glyph-name="lslash" unicode="&#x142;" horiz-adv-x="241" 
d="M83 0v328l-77 -55v42l77 55v225c0 62 -50 64 -78 66v17l155 23v-275l74 53v-42l-74 -53v-384h-77z" />
    <glyph glyph-name="OE" unicode="&#x152;" horiz-adv-x="890" 
d="M846 0h-411c-6 0 -24 -3 -46 -5c-22 -3 -48 -6 -73 -6c-206 0 -262 148 -262 347c0 214 63 348 262 348c25 0 50 -3 73 -5c23 -3 44 -6 59 -6h381l5 -122h-31c-10 52 -9 83 -92 83h-105c-57 0 -61 -12 -61 -66v-197h127c82 0 90 36 98 83h23v-207h-23
c-10 58 -14 85 -98 85h-127v-235c0 -58 9 -58 82 -58h107c69 0 74 21 88 97h31zM458 198v336c0 33 -8 66 -26 79c-28 20 -70 32 -116 32c-153 0 -164 -171 -164 -309c0 -125 7 -308 164 -308c57 0 104 9 125 36c16 20 17 83 17 134z" />
    <glyph glyph-name="oe" unicode="&#x153;" horiz-adv-x="779" 
d="M725 40v-33c-11 -5 -61 -18 -123 -18c-79 0 -139 32 -178 93c-34 -60 -89 -93 -164 -93c-134 0 -209 98 -209 241c0 147 61 246 207 246c65 0 127 -28 155 -82c31 53 83 82 157 82c94 0 168 -69 168 -220v-15h-292v-21c0 -79 70 -192 208 -192c25 0 49 6 71 12zM136 230
c0 -75 18 -202 125 -202c114 0 122 126 122 202c0 82 -16 207 -124 207c-118 0 -123 -125 -123 -207zM651 275v9c0 86 -34 153 -94 153c-91 0 -107 -117 -110 -162h204z" />
    <glyph glyph-name="Scaron" unicode="&#x160;" horiz-adv-x="482" 
d="M405 668v-70c-31 14 -95 41 -165 41c-72 0 -121 -39 -121 -100c0 -158 330 -138 330 -357c0 -138 -114 -193 -243 -193c-70 0 -143 16 -160 20v69c37 -18 106 -44 174 -44c88 0 140 42 140 127c0 169 -321 144 -321 354c0 109 85 169 218 169c65 0 119 -10 148 -16z
M367 906l-85 -121c-15 -21 -22 -32 -42 -32s-27 10 -42 31l-84 122h43l82 -67l86 67h42z" />
    <glyph glyph-name="scaron" unicode="&#x161;" horiz-adv-x="370" 
d="M313 459v-60c-16 8 -65 38 -121 38c-43 0 -83 -16 -83 -64c0 -100 235 -84 235 -241c0 -100 -76 -143 -178 -143c-65 0 -104 12 -129 20v63c10 -5 71 -44 133 -44c60 0 104 22 104 85c0 102 -235 100 -235 232c0 77 46 131 163 131c50 0 94 -13 111 -17zM311 698
l-85 -121c-15 -21 -22 -32 -42 -32s-27 10 -42 31l-84 122h43l82 -67l86 67h42z" />
    <glyph glyph-name="Ydieresis" unicode="&#x178;" 
d="M211 0v316l-142 239c-40 68 -52 96 -120 101v17h149l174 -293l181 293h66l-221 -357v-316h-87zM181 758c-27 0 -51 22 -51 51c0 28 23 51 51 51s52 -23 52 -51s-24 -51 -52 -51zM358 758c-28 0 -52 22 -52 51c0 28 23 51 52 51c28 0 51 -23 51 -51s-23 -51 -51 -51z" />
    <glyph glyph-name="Zcaron" unicode="&#x17d;" horiz-adv-x="537" 
d="M38 0v44l359 590h-218c-85 0 -86 -38 -92 -98h-31l6 137h451v-43l-360 -591h251c85 0 86 43 93 111h31l-5 -150h-485zM395 906l-85 -121c-15 -21 -22 -32 -42 -32s-27 10 -42 31l-84 122h43l82 -67l86 67h42z" />
    <glyph glyph-name="zcaron" unicode="&#x17e;" horiz-adv-x="445" 
d="M32 0v39l269 387h-134c-82 0 -88 -31 -97 -74h-22l5 113h342v-39l-267 -387h133c91 0 114 16 123 74h23l-6 -113h-369zM349 698l-85 -121c-15 -21 -22 -32 -42 -32s-27 10 -42 31l-84 122h43l82 -67l86 67h42z" />
    <glyph glyph-name="florin" unicode="&#x192;" horiz-adv-x="408" 
d="M212 304l-57 -307c-15 -81 -38 -201 -186 -201c-80 0 -113 48 -119 92h87c3 -19 16 -58 57 -58c52 0 63 55 77 130l63 344h-78l7 39h78l29 152c12 63 35 189 183 189c101 0 126 -54 130 -92h-87c-4 21 -19 58 -63 58c-57 0 -67 -56 -81 -133l-33 -174h91l-7 -39h-91z" />
    <glyph glyph-name="circumflex" unicode="&#x2c6;" horiz-adv-x="300" 
d="M23 545l86 121c14 21 22 32 41 32c21 0 28 -10 42 -31l84 -122h-42l-82 67l-86 -67h-43z" />
    <glyph glyph-name="caron" unicode="&#x2c7;" horiz-adv-x="300" 
d="M276 698l-85 -121c-15 -21 -22 -32 -42 -32s-27 10 -42 31l-84 122h43l82 -67l86 67h42z" />
    <glyph glyph-name="uni02C9" unicode="&#x2c9;" horiz-adv-x="300" 
d="M22 545v50h256v-50h-256z" />
    <glyph glyph-name="breve" unicode="&#x2d8;" horiz-adv-x="300" 
d="M237 675h36c0 -53 -26 -129 -123 -130c-95 2 -123 77 -123 130h36c3 -26 19 -70 86 -70c70 0 84 45 88 70z" />
    <glyph glyph-name="dotaccent" unicode="&#x2d9;" horiz-adv-x="300" 
d="M150 550c-28 0 -52 22 -52 51c0 28 23 51 52 51c28 0 51 -23 51 -51s-23 -51 -51 -51z" />
    <glyph glyph-name="ring" unicode="&#x2da;" horiz-adv-x="300" 
d="M139 545c-46 0 -85 37 -85 84c0 46 39 83 85 83c47 0 86 -37 86 -83c0 -47 -39 -84 -86 -84zM97 629c0 -23 19 -41 42 -41s43 18 43 41c0 20 -19 40 -43 40c-23 0 -42 -20 -42 -40z" />
    <glyph glyph-name="ogonek" unicode="&#x2db;" horiz-adv-x="300" 
d="M245 -163v-33c-16 -3 -33 -8 -49 -8c-61 0 -108 18 -108 84c0 61 76 117 98 132h31c-23 -23 -65 -65 -65 -130c0 -30 27 -50 53 -50c14 0 28 1 40 5z" />
    <glyph glyph-name="tilde" unicode="&#x2dc;" horiz-adv-x="300" 
d="M59 550h-38c8 47 13 114 65 114c49 0 95 -56 127 -56c25 0 29 34 31 44h34c-4 -26 -4 -116 -69 -116c-39 0 -106 55 -125 55c-23 0 -24 -27 -25 -41z" />
    <glyph glyph-name="hungarumlaut" unicode="&#x2dd;" horiz-adv-x="300" 
d="M66 545l34 115c9 31 20 42 50 42c19 0 38 -13 38 -34c0 -11 -7 -22 -20 -40l-58 -83h-44zM189 545l34 115c9 31 20 42 50 42c19 0 38 -13 38 -34c0 -11 -7 -22 -20 -40l-59 -83h-43z" />
    <glyph glyph-name="uni03A9" unicode="&#x3a9;" horiz-adv-x="673" 
d="M184 57v3c-66 54 -126 147 -126 271c0 172 121 295 281 295c168 0 275 -140 275 -291c0 -129 -64 -226 -128 -275v-3h141v-57h-226v42c72 44 141 138 141 280c0 116 -70 246 -203 246c-127 0 -209 -111 -209 -248c0 -133 70 -236 141 -278v-42h-226v57h139z" />
    <glyph glyph-name="uni03BC" unicode="&#x3bc;" horiz-adv-x="537" 
d="M96 -204v573c0 60 -47 63 -75 66v17l152 24v-312c0 -65 16 -126 84 -126c66 0 128 123 128 188v143c0 60 -46 63 -75 66v17l152 24v-476h-77v110h-2c-13 -36 -60 -121 -150 -121c-24 0 -44 4 -60 10v-190z" />
    <glyph glyph-name="pi" unicode="&#x3c0;" horiz-adv-x="531" 
d="M507 399h-75v-266c0 -75 6 -109 13 -133h-69c-9 14 -15 52 -15 126v273h-168c-5 -113 -34 -317 -67 -399h-70c34 94 62 282 66 399c-57 0 -84 -4 -104 -11l-10 46c23 15 62 25 134 25h372z" />
    <glyph glyph-name="uni2010" unicode="&#x2010;" horiz-adv-x="408" 
d="M54 214v63h300v-63h-300z" />
    <glyph glyph-name="endash" unicode="&#x2013;" 
d="M54 214v57h411v-57h-411z" />
    <glyph glyph-name="emdash" unicode="&#x2014;" horiz-adv-x="686" 
d="M52 214v57h582v-57h-582z" />
    <glyph glyph-name="quoteleft" unicode="&#x2018;" horiz-adv-x="241" 
d="M120 684h33c-15 -19 -47 -54 -47 -91c0 -24 19 -12 39 -24c15 -7 25 -18 25 -45c0 -32 -24 -55 -59 -55c-33 0 -63 21 -63 68c0 71 54 128 72 147z" />
    <glyph glyph-name="quoteright" unicode="&#x2019;" horiz-adv-x="241" 
d="M121 469h-33c15 19 47 55 47 92c0 23 -19 12 -40 23c-14 8 -25 19 -25 46c0 32 25 54 60 54c32 0 62 -21 62 -68c0 -71 -54 -128 -71 -147z" />
    <glyph glyph-name="quotesinglbase" unicode="&#x201a;" horiz-adv-x="241" 
d="M121 -99h-33c15 19 47 54 47 91c0 24 -19 12 -40 24c-14 7 -25 18 -25 45c0 32 25 55 60 55c32 0 62 -21 62 -69c0 -71 -54 -128 -71 -146z" />
    <glyph glyph-name="quotedblleft" unicode="&#x201c;" horiz-adv-x="408" 
d="M288 684h33c-15 -19 -47 -54 -47 -91c0 -24 19 -13 40 -24c14 -7 25 -19 25 -45c0 -32 -25 -55 -60 -55c-32 0 -62 21 -62 69c0 70 54 128 71 146zM121 684h33c-16 -19 -47 -54 -47 -91c0 -24 18 -13 39 -24c14 -7 25 -19 25 -45c0 -32 -24 -55 -59 -55
c-32 0 -62 21 -62 68c0 71 53 128 71 147z" />
    <glyph glyph-name="quotedblright" unicode="&#x201d;" horiz-adv-x="408" 
d="M121 469h-33c15 19 47 55 47 92c0 23 -19 12 -40 23c-14 8 -25 19 -25 46c0 32 25 54 60 54c32 0 62 -21 62 -68c0 -71 -54 -128 -71 -147zM288 469h-33c16 19 47 55 47 92c0 23 -18 12 -39 23c-14 8 -25 19 -25 46c0 32 24 54 59 54c32 0 62 -20 62 -67
c0 -71 -53 -129 -71 -148z" />
    <glyph glyph-name="quotedblbase" unicode="&#x201e;" horiz-adv-x="408" 
d="M121 -99h-33c15 19 47 54 47 91c0 24 -19 12 -40 24c-14 7 -25 18 -25 45c0 32 25 55 60 55c32 0 62 -21 62 -69c0 -71 -54 -128 -71 -146zM288 -99h-33c16 19 47 54 47 91c0 24 -18 12 -39 24c-14 7 -25 18 -25 45c0 32 24 55 59 55c32 0 62 -21 62 -68
c0 -71 -53 -129 -71 -147z" />
    <glyph glyph-name="dagger" unicode="&#x2020;" horiz-adv-x="501" 
d="M203 0l33 386l-192 -29v91l192 -31l-33 256h96l-32 -256l190 31v-91l-190 28l32 -385h-96z" />
    <glyph glyph-name="daggerdbl" unicode="&#x2021;" 
d="M213 0l34 188l-196 -30v91l196 -32l-18 123l18 109l-196 -27v91l196 -30l-34 190h94l-34 -190l195 30v-91l-195 27l18 -109l-18 -123l195 32v-91l-195 30l34 -188h-94z" />
    <glyph glyph-name="bullet" unicode="&#x2022;" horiz-adv-x="500" 
d="M250 180c-100 0 -181 81 -181 180c0 100 81 182 181 182s181 -82 181 -182c0 -99 -82 -180 -181 -180z" />
    <glyph glyph-name="ellipsis" unicode="&#x2026;" horiz-adv-x="723" 
d="M120 0c-30 0 -56 24 -56 54s25 55 56 55c29 0 56 -24 56 -55c0 -30 -26 -54 -56 -54zM360 0c-30 0 -55 24 -55 54s25 55 55 55s57 -24 57 -55c0 -30 -26 -54 -57 -54zM602 0c-31 0 -56 24 -56 54s25 55 56 55c30 0 56 -24 56 -55c0 -30 -26 -54 -56 -54z" />
    <glyph glyph-name="perthousand" unicode="&#x2030;" horiz-adv-x="1168" 
d="M176 194c-109 0 -154 94 -154 217c0 117 34 218 154 218c122 0 154 -108 154 -218c0 -120 -35 -217 -154 -217zM88 411c0 -69 8 -183 90 -183c75 0 86 115 86 183c0 76 -11 184 -87 184c-80 0 -89 -106 -89 -184zM640 -11c-110 0 -155 93 -155 217c0 116 34 218 154 218
c122 0 155 -108 155 -218c0 -120 -36 -217 -154 -217zM551 206c0 -69 8 -183 90 -183c75 0 87 114 87 183c0 75 -12 184 -87 184c-81 0 -90 -106 -90 -184zM992 -11c-110 0 -155 93 -155 217c0 116 34 218 155 218s154 -108 154 -218c0 -120 -36 -217 -154 -217zM903 206
c0 -69 9 -183 90 -183c76 0 87 114 87 183c0 75 -12 184 -87 184c-81 0 -90 -106 -90 -184zM280 0l208 618h47l-207 -618h-48z" />
    <glyph glyph-name="guilsinglleft" unicode="&#x2039;" horiz-adv-x="241" 
d="M146 58l-105 180l105 185h51l-60 -185l60 -180h-51z" />
    <glyph glyph-name="guilsinglright" unicode="&#x203a;" horiz-adv-x="241" 
d="M41 58l60 180l-60 185h51l105 -185l-105 -180h-51z" />
    <glyph glyph-name="fraction" unicode="&#x2044;" horiz-adv-x="241" 
d="M-6 0l208 618h46l-207 -618h-47z" />
    <glyph glyph-name="Euro" unicode="&#x20ac;" horiz-adv-x="537" 
d="M522 16c-32 -12 -84 -27 -161 -27c-157 0 -234 119 -253 261h-86l8 39h74c-2 23 -3 44 -3 67h-79l8 39h72c2 48 8 97 28 141c37 78 109 116 205 116c108 0 180 -54 187 -140h-88c-9 65 -45 101 -104 101c-115 0 -137 -122 -140 -218h192l-8 -39h-185c0 -22 1 -45 4 -67
h173l-8 -39h-161c17 -112 63 -216 199 -216c51 0 105 16 126 24v-42z" />
    <glyph glyph-name="afii61289" unicode="&#x2113;" horiz-adv-x="451" 
d="M396 138l33 -30c-41 -78 -103 -115 -175 -115c-104 0 -148 76 -153 161v11c-17 -13 -35 -28 -53 -42l-21 41c26 21 51 40 73 61v240c0 162 73 215 143 215c80 0 117 -67 117 -146c0 -112 -77 -217 -192 -325v-27c1 -94 49 -133 101 -133c58 0 104 47 127 89zM168 472
v-195c79 84 142 170 142 256c0 56 -18 95 -66 95c-34 0 -76 -38 -76 -156z" />
    <glyph glyph-name="trademark" unicode="&#x2122;" horiz-adv-x="611" 
d="M34 399v19c34 3 53 2 53 45v191c-56 -12 -61 -36 -79 -83h-17l8 102h231l5 -102h-18c-19 51 -20 73 -78 83v-191c0 -42 12 -41 48 -45v-19h-153zM248 399v19c34 6 46 7 46 45v156c0 35 -5 33 -34 35v19h100l55 -181h2l63 181h108v-19c-32 -4 -42 -3 -42 -41v-150
c0 -41 9 -41 37 -45v-19h-124v19c24 5 35 6 35 45v184h-2l-84 -248h-16l-73 239h-2v-175c0 -39 8 -40 29 -45v-19h-98z" />
    <glyph glyph-name="Omega" unicode="&#x2126;" horiz-adv-x="673" 
d="M184 57v3c-66 54 -126 147 -126 271c0 172 121 295 281 295c168 0 275 -140 275 -291c0 -129 -64 -226 -128 -275v-3h141v-57h-226v42c72 44 141 138 141 280c0 116 -70 246 -203 246c-127 0 -209 -111 -209 -248c0 -133 70 -236 141 -278v-42h-226v57h139z" />
    <glyph glyph-name="estimated" unicode="&#x212e;" horiz-adv-x="772" 
d="M741 300h-576c-3 0 -5 -1 -5 -4v-174c0 -8 3 -14 8 -20c56 -58 133 -95 218 -95c92 0 173 42 229 106h51c-63 -74 -167 -123 -281 -123c-196 0 -355 142 -355 319s159 320 355 320c197 0 356 -143 356 -320v-9zM610 323v175c0 7 -3 15 -8 21c-56 55 -132 91 -216 91
s-161 -37 -217 -94c-6 -6 -9 -13 -9 -22v-171c0 -2 2 -6 5 -6h441c3 0 4 4 4 6z" />
    <glyph glyph-name="partialdiff" unicode="&#x2202;" horiz-adv-x="507" 
d="M94 591l-25 50c30 23 80 50 156 50c122 0 236 -111 236 -335c0 -201 -83 -363 -243 -363c-123 0 -180 108 -180 205c0 137 92 224 197 224c87 0 140 -62 154 -88h1c1 10 1 28 1 39c0 156 -78 261 -173 261c-58 0 -99 -24 -124 -43zM224 50h1c88 0 144 106 157 217
c-14 39 -63 99 -135 99c-76 0 -138 -75 -138 -168c0 -84 45 -148 115 -148z" />
    <glyph glyph-name="Delta" unicode="&#x2206;" horiz-adv-x="603" 
d="M28 0v47l233 586h83l230 -585v-48h-546zM101 57h396l-134 335c-16 47 -50 125 -61 165h-4c-9 -31 -39 -103 -55 -150z" />
    <glyph glyph-name="product" unicode="&#x220f;" horiz-adv-x="649" 
d="M625 553h-102v-638h-70v638h-258v-638h-69v638h-103v63h602v-63z" />
    <glyph glyph-name="summation" unicode="&#x2211;" horiz-adv-x="514" 
d="M493 -85h-473v46l249 303l-237 304v48h447v-60h-349v-3l220 -279l-237 -291v-3h380v-65z" />
    <glyph glyph-name="minus" unicode="&#x2212;" horiz-adv-x="575" 
d="M57 211v52h461v-52h-461z" />
    <glyph glyph-name="uni2215" unicode="&#x2215;" horiz-adv-x="241" 
d="M-6 0l208 618h46l-207 -618h-47z" />
    <glyph glyph-name="uni2219" unicode="&#x2219;" horiz-adv-x="241" 
d="M120 178c-32 0 -59 25 -59 57s27 57 59 57s60 -24 60 -55c0 -33 -28 -59 -60 -59z" />
    <glyph glyph-name="radical" unicode="&#x221a;" horiz-adv-x="527" 
d="M530 732l-206 -864h-62l-148 408l-69 -26l-14 42l126 50l119 -332c5 -20 12 -44 16 -62h1c3 17 8 42 12 63l172 721h53z" />
    <glyph glyph-name="infinity" unicode="&#x221e;" horiz-adv-x="708" 
d="M662 256v-1c0 -89 -68 -145 -140 -145c-57 0 -103 36 -167 109c-48 -56 -98 -109 -172 -109s-137 61 -137 142c0 83 61 144 144 144c68 0 120 -51 168 -108c47 52 94 109 171 108c79 0 133 -57 133 -140zM189 154h1c58 0 103 57 141 96c-41 50 -82 104 -147 104
c-58 0 -92 -48 -91 -103c0 -53 38 -97 96 -97zM524 354h-1c-61 0 -110 -67 -142 -99c61 -67 96 -101 145 -101c57 0 90 51 90 98c0 64 -39 102 -92 102z" />
    <glyph glyph-name="integral" unicode="&#x222b;" horiz-adv-x="327" 
d="M313 741l-11 -48c-8 5 -22 9 -34 9c-16 0 -35 -5 -47 -21c-23 -26 -31 -74 -31 -157c0 -138 13 -298 13 -442c0 -94 -19 -147 -39 -178c-21 -32 -56 -47 -92 -47c-24 0 -50 9 -61 16l12 49c8 -3 24 -11 42 -11c15 0 32 7 43 20c18 23 31 62 31 152c0 145 -12 308 -12 448
c0 97 13 152 49 188c23 24 55 35 86 35c20 0 41 -7 51 -13z" />
    <glyph glyph-name="approxequal" unicode="&#x2248;" horiz-adv-x="521" 
d="M448 385l29 -26c-26 -48 -63 -85 -119 -85c-38 0 -64 14 -109 38c-28 16 -54 31 -86 31c-43 0 -68 -33 -92 -68l-29 25c28 53 74 86 127 86c45 0 78 -23 103 -37c33 -17 54 -32 88 -32c37 0 62 24 88 68zM448 229l29 -26c-26 -47 -63 -85 -119 -85c-38 0 -64 14 -109 38
c-28 16 -55 31 -85 31c-44 0 -69 -33 -93 -68l-29 25c28 53 74 87 127 87c45 0 77 -24 103 -37c30 -17 53 -32 88 -32c38 0 61 23 88 67z" />
    <glyph glyph-name="notequal" unicode="&#x2260;" horiz-adv-x="521" 
d="M369 452l-41 -90h145v-45h-164l-62 -133h226v-45h-244l-50 -108l-36 16l42 92h-138v45h157l62 133h-219v45h237l49 106z" />
    <glyph glyph-name="lessequal" unicode="&#x2264;" horiz-adv-x="521" 
d="M470 82l-418 204v48l418 203v-53l-369 -173v-1l369 -175v-53zM473 0h-426v46h426v-46z" />
    <glyph glyph-name="greaterequal" unicode="&#x2265;" horiz-adv-x="521" 
d="M53 537l418 -204v-47l-418 -204v53l369 174v2l-369 173v53zM472 0h-424v46h424v-46z" />
    <glyph glyph-name="lozenge" unicode="&#x25ca;" horiz-adv-x="528" 
d="M478 308l-187 -350h-57l-184 350l186 350h57zM414 306l-132 249c-7 14 -14 33 -18 45h-2c-4 -13 -10 -29 -18 -45l-131 -246l133 -251c8 -17 14 -33 16 -44h4c3 11 10 32 16 44z" />
    <glyph glyph-name="fi" unicode="&#xfb01;" horiz-adv-x="556" 
d="M110 0v431h-80v34h80v57c0 80 15 178 142 178c104 0 137 -60 140 -107h-85c0 34 -15 68 -62 68c-58 0 -58 -69 -58 -139v-57h134v-34h-134v-431h-77zM402 0v369c0 61 -47 64 -75 67v16l152 24v-476h-77z" />
    <glyph glyph-name="fl" unicode="&#xfb02;" horiz-adv-x="556" 
d="M110 0v431h-80v34h80v57c0 80 15 178 142 178c36 0 63 -7 84 -18l127 19v-701h-77v593h-80c0 34 -15 68 -61 68c-58 0 -58 -69 -58 -139v-57h134v-34h-134v-431h-77z" />
    <glyph glyph-name="one.superior" horiz-adv-x="352" 
d="M165 205v311c0 23 0 49 -28 49c-10 0 -21 -2 -41 -9l-3 15l105 58h27v-424h-60z" />
    <glyph glyph-name="two.superior" horiz-adv-x="352" 
d="M42 205v31c40 37 187 168 187 279c0 47 -24 80 -68 80c-57 0 -77 -44 -84 -71h-31c7 44 34 105 123 105c86 0 128 -41 128 -126c0 -103 -172 -235 -200 -261h122c52 0 60 22 68 66h22l-7 -103h-260z" />
    <glyph glyph-name="three.superior" horiz-adv-x="352" 
d="M72 532h-29c8 41 32 97 121 97c74 0 126 -39 126 -112c0 -53 -22 -72 -64 -95c46 -22 73 -39 73 -98c0 -91 -86 -125 -171 -125c-42 0 -82 9 -96 11v33c25 -5 50 -10 75 -10c63 0 124 32 124 100c0 62 -43 71 -88 73v32c27 0 82 2 82 78c0 53 -31 79 -71 79
c-54 0 -73 -36 -82 -63z" />
    <glyph glyph-name="a.superior" horiz-adv-x="260" 
d="M171 280v32h-2c-16 -22 -36 -37 -76 -37s-68 28 -68 65c0 78 93 81 146 86v19c0 40 0 79 -45 79c-41 0 -43 -36 -44 -52h-54c3 35 25 74 96 74c61 0 92 -27 92 -78v-188h-45zM171 376v28c-23 0 -96 -5 -96 -51c0 -27 13 -47 36 -47c46 0 60 39 60 70z" />
    <glyph glyph-name="o.superior" horiz-adv-x="297" 
d="M149 275c-75 0 -118 55 -118 134c0 81 35 137 118 137c73 0 118 -53 118 -137s-39 -134 -118 -134zM84 409c0 -41 9 -111 65 -111c62 0 65 69 65 111c0 45 -7 114 -65 114c-63 0 -65 -69 -65 -114z" />
    </font>
</defs>
</svg>
